<svg xmlns="http://www.w3.org/2000/svg" viewBox="0 0 274.03 931.15"><defs><style>.cls-1{fill:#b4905b;}</style></defs><title>website_elevatormenu</title><g id="Layer_6" data-name="Layer 6"><path class="cls-1" d="M161.85,88.13c3.1,1.74,5,1.31,5.34-2.68,1.11-12.64-1.62-24.11-10.13-34.09l6.77-10.15c-4.9-.25-10.63.46-15.75-1-16.2-4.56-32.07-.49-48,1.11C82.48,43.11,65,46.55,47.36,48.55c-9.8,1.1-15.12,6-14,15.7s2.67,19.42,4,29.13c2.92,20.86,5.58,41.76,9,62.54.58,3.58,3.82,8.8,6.75,9.52,7.22,1.76,15,1.17,22.49,1.87a53.41,53.41,0,0,1,9.55,2.26,59.92,59.92,0,0,1,5.61,2.22c-.12,1.31-.3,3.39-.56,6.39-10.28-2.5-20.33,1.53-31-2.4-13-4.77-16.59-6.64-18.21-20.46-.64-5.5-.24-11.12-1-16.58-1.89-13.15-4.35-26.22-6.3-39.36-2-13.64-3.54-27.37-5.67-41-1.55-10-.34-12.89,9.3-17.09a34.93,34.93,0,0,1,9-2.33c19-2.67,37.93-5.22,56.9-7.79C119,29,134.82,26.44,151,29.1c15.14,2.5,30.42,4.19,45.63,6.28,9.94,1.37,20,2.09,29.71,4.53,5.46,1.38,12,4.54,14.71,9s1.56,11.27,1,17c-1.62,17.06-3.82,34.07-5.69,51.11-1.35,12.4-2.52,24.82-3.79,37.23-1.16,11.18-10.07,23.51-18.11,22.94-10.76-.77-20.75,7.72-31.69,2.1-.4-.21-1.19.31-2.4.68l4.63,2.32c-9.22-5.68-16.06,1.45-23.83,5.72.64-3.07,1-4.61,1.34-6.38L155.1,181c1.05-4.39,4-10.27,2.54-11.79-5.32-5.44-2-10.73-2-16.07l1.79-.07v8.3l1.17.45c1.82-3,3.63-6,5.68-9.37,3.1,2.26,8.72-7.11,10.85,2.44,2.6-1.1,4.64-2.64,6.69-2.66,2.41,0,5.59.58,7.08,2.18,3.66,3.92,9.64,3.4,11.91-1.66l12.06,2.52,7.36-9.84,1.87.77q-.45,7.43-.91,14.86l2.68.67c1.22-3,3.2-5.83,3.52-8.87q4.84-45.84,9.09-91.72c.22-2.25-1.06-4.64-1.65-7l-2.1.18a61.42,61.42,0,0,0-1,6.82c-.09,2.55,2.39,4.95-1.86,7.39-1.6.92-9.27,7.94.26,11.09-.93,1.89-2.57,3.66-2.2,4.73,2.35,6.65,1.33,8.92-4.07,10.73v18.47c-6.09,1.36-6.09,1.36-6.69-10.76l-9.38-2,3.15-7c-7.84-.54-6.9,5-5.92,12.14l-10.71-4.14-3.9,2.25c-3.26-1.66-3.29-12.23-9.08-2.54-.19.31-1.44-.17-1.9.15a35.5,35.5,0,0,0-5.65,4.35c-1,1.06-1.39,2.76-1.82,3.67l-10.44-14.2,15.65,2.87-15.2-10.45Zm50.57,72.54c-6,3.8-8.52,3.89-14-.65-2.51,3.66-5.15,9.6-9,1-5.43,5.93-8.6,6.51-12.64,3.14l-16.78,6.77.17,1.12,56.86-8c0-1,0-2,0-2.92C215.54,161,213.47,160,212.42,160.67ZM195.61,76.1,195.06,78c2.06,1.27,5.24,4.1,6,3.54,4.47-3.16,8.91-6.8,8.06-13.54C206.87,74.52,202.44,77.11,195.61,76.1ZM181.46,44.37,173.4,43c2.06,4.67,3.86,8.76,5.59,12.7C179.67,52.59,180.48,48.84,181.46,44.37Zm25.71,8.22c.67.27,2-1.17,3.06-1.82-.89-1.13-1.68-3.1-2.69-3.23-3.31-.41-6.7-.15-11-.15C200.66,49.46,203.83,51.25,207.17,52.59Z"/><path class="cls-1" d="M60.23,759.93c2.56,0,4.11,0,5.66,0,8.81-.08,10.78-2.69,10.14-11.37-.54-7.18-.11-14.44-.11-21.77,11.18-1.7,6.83-10,8-17.69h42.67c-1.76,3.74,4.14,11.87-6.13,13.57-.26,0-.31.9-.64,1.12-7.59,5-2.53,15.82-9.76,21-.28.2.31,1.6.64,3.1.82-1.42,1.31-2.28,1.77-3.09,2.23,1.58,4.33,4.26,5.93,4,6.9-1.18,7,2.8,6.72,7.57-.08,1.35.37,2.77.09,4.06-.39,1.75-.81,3.81-2,5-4.05,4.32-8.42,8.33-12,11.85,3.28,3.66,5.09,6.31,7.51,8.15,1.67,1.27,4.19,1.42,6.32,2.07l.66-1.72-2.53-2.93,2-1c.83,2.43,2.17,4.82,2.37,7.3.25,3-.81,6.13-.69,9.18.35,9.35.93,18.7,1.53,28.05.32,4.86-.67,8.76-5,9.2,1,6,2.12,11.48,2.62,17,.43,4.81-2.17,7.59-7.15,7.55-17.61-.12-35.23-.17-52.83-.67-1.82,0-4.5-2.58-5.12-4.5-.89-2.73-.23-5.95-.23-9.93,9,0,17.48.26,25.88-.08,6.36-.26,6.1-5.34,6.11-9.89s-1.14-7.84-6.76-7.6-11.4.05-17.61.05c0-8.54-.23-16.24.07-23.93.25-6.4-1.63-8.82-10-9.77C59,782.39,59.63,771.3,60.23,759.93Zm46-.41c2.91-4.61,2-9.54-2.87-12.83s-9.33-1.92-13,2.23c-4,4.47-1.94,8.39,1.12,12.48,1.87,2.49,2.89,5.6,4.82,9.49C99.46,767.41,103.53,763.88,106.27,759.52Zm-14.6-22.68c-2.39-1.12-5.2-3.29-8.13-3.48-1.86-.13-3.91,2.7-5.88,4.21l.94,1.77,7.33-2.43c-1,5.37-1.86,10.11-2.72,14.84l1.22.58,16.51-19.57-1.71-2ZM112.48,757c.76,6.72-1.85,10-10.66,13.06,1.51,1.07,3.16,2.84,3.72,2.54,5-2.64,10.32-5.12,14.53-8.8,1.79-1.56,1.17-5.86,1.75-9.52Z"/><path class="cls-1" d="M143.1,476.93c.36,1,.73,2,1.09,3,1.29-5.06,2.89-8.93.41-13.38-3.27-5.87-.82-12.37-.48-18.73.56-10.51-1.35-21.12-1.5-31.69-.17-12.22.74-24.45.63-36.68-.08-7.62-1.56-15.23-1.7-22.86-.17-9,.75-18.06.61-27.08-.15-10.21-1.31-20.4-1.37-30.6-.1-17.31-1.24-34.84,1.17-51.83,1.14-8-3.51-13.63-2.91-20.74.25-3.05-.57-5.59,2.4-8.11,1.59-1.36,1.38-4.85,2-7.43l-7.23-3.31,6.59-3.36c-.63-8.08-1.05-17.84-2.3-27.49-.56-4.34-.36-7.29,4-9.25,1.25-.57,2.88-3.46,2.63-3.74A58.55,58.55,0,0,0,138,155c-1-.72-3.68.54-5.4,1.31a58.1,58.1,0,0,0-5.94,3.46c9.3,15.42,3,31.57,5.87,48.51,4.71,5.24-1.4,12.58-.81,19.57.64,7.47.15,15,.15,21.62l1.5-1.9c.26,2.64.61,4.47.59,6.3-.19,18.18-.64,36.37-.64,54.55q0,36.62.58,73.24c.15,10.78,1.21,21.55,1.19,32.31,0,17.74-.82,35.46-.92,53.2-.12,22.15-1.4,44.45.66,66.42,1.86,19.84,1.18,39.31,0,59-.54,8.91,2,18,2,27,0,7.1-1.83,14.19-2.85,21.28-.07.43-.4,1.06-.23,1.24,7,7.45-.39,15.76,1.41,23.77s1.12,16.43,1.36,24.69c.48,17,1,34,1.21,51.05.16,12.28-1.09,24.66.19,36.8.68,6.51-2.3,13.06,2,20.09,2.43,4-1.77,11.61-1.77,17.59,0,12.54,1.29,25.1,1.1,37.63-.21,13.85-1.48,27.68-2.31,42l10.5,1.69c1.67-9.3,2.51-17.8.42-26.86-.65-2.79-.23-7.22.11-10.68,2-21.48-1.75-42.51-3.4-63.73-.62-8,2.09-16.18,2-24.27-.12-12.62-1.58-25.22-1.95-37.85-.16-5.36,1.2-10.75,1.52-16.15.6-9.79,1.34-19.6,1.29-29.4-.09-16.52-.69-33-1.2-49.55-.24-7.67-1-15.33-1.16-23-.15-5.9,0-11.82.34-17.72.4-7.25,1.36-14.48,1.58-21.73.11-3.54-1-7.1-1.42-10.67-.39-3.2-.73-6.42-.93-9.64-.31-5.19,4.7-10.89-1.51-15.54-.19-.14.1-.85.1-1.29.23-13,.34-26,.72-39,.14-4.92,1.38-9.85,1.15-14.73-.12-2.59-2.3-5.09-3.55-7.63Z"/><path class="cls-1" d="M161.85,88.13l1.62-6.62c-3,2.22-5,3-5.92,4.44-5.75,9.11-14.18,10.81-24.25,10.31-12.66-.63-17-10-21.88-18.34,2.88-6.42,4.42-13.47,8.6-18.16,4.42-5,11.37-7.68,15-10l18,9.81c1.05-1.17,2.12-2.39,4.45-5l-23-13.25-17.85,9.13c-7.51-9.48-18.44-3.89-28.22-3.31-8.18.48-16.21,3.76-25.27,6-5.61-3-12.49-2-19,1-6.85,3.21-5.27,9.71-4.7,15.31,1,9.7,2.36,19.36,3.85,29,1.13,7.31,2.66,14.56,4,21.84.68,3.62,1.75,5.78,6.25,3.46,2.1-1.08,5.21-.18,7.86-.18l-.06,3c-1.5,0-3.34-.53-4.41.14s-1.71,2.63-3.25,5.26L67,133.2c-3.36,5-6.22,9.18-8.22,12.15l19.4-.87,1,1.88c1-3.58,2-7.16,3.36-12l-9.57,4.31c4-8.39,2.28-14.53-2.79-20.41-1.37-1.59-1.82-5.24-1-7.2,1.43-3.28,4.25-6,6.93-9.48l-10.68,2.53c-.19,2.93-.38,5.87-.58,9-7.29-2.16-8.76-5.21-7-13.2l7.77,4.34c-.14-9.45,9-6.62,13.92-11.25v6.42l1.14.42,2.5-6.65,9.38,5.11-13.25,7.22,15.52,3c-.4-2.29-.68-3.83-1-5.37l1.16-.64c.92,1.75,2.45,3.44,2.63,5.26.49,4.94,3,7.39,7.78,7.18,1.52-.06,3-1.48,4.47-2.28a33,33,0,0,1-3-3,29.91,29.91,0,0,1-2.11-3.75l5.42-1.28a9.3,9.3,0,0,1-2.28-.39c-2.41-1.44-6-2.44-6.89-4.57-1.36-3.08-1.09-6.79,3.27-8.87,3.63-1.73,4.72-4.62,3.81-9.31-1.16-6-.28-12.39-.28-18.62l2.54,0c0,4.91-.75,10,.15,14.72,2,10.33,5.67,20.09,17.29,23,3.95,1,8.46-.28,12.72-.54.19,0,.38-.36.55-.35,9.6.73,14.8-6.38,20.95-11.77Z"/><path class="cls-1" d="M168.75,798.08c.48-1.82.95-3.64,1.43-5.46l-1.08-.25,5.16-5.85-.15.19,5.51-8.29-2.75-.16c-.47-2.07-.94-4.15-1.43-6.26l-5.64-.88v-8.93l5-9.34L187,761.78c1.26-5.58,2.13-10.64,3.67-15.48a5.88,5.88,0,0,1,4.23-3.33,171.1,171.1,0,0,1,19.35-.12c1.31.06,3.5,2.08,3.64,3.37,1.32,12.66,2.45,25.34,3.25,38,.22,3.47-1.3,7-1.18,10.53.23,6.74,1.43,13.5-7.43,16.16-1.15.34-2.08,3.26-2.14,5-.23,6.6-.22,13.22,0,19.81.15,4,1.54,8-5,8.44-1.27.08-2.57,5-3.19,7.78-.39,1.73.48,3.73,1,6.9-11.48.31-22.29.5-33.09,1-3.4.14-6.88,0-7.09-4-.29-5.38.49-10.82.82-16.24a3.08,3.08,0,0,0,1.18.14c3.36-1,3.81-2,2.3-5.13-3.2-6.61-2.15-8.41,6.08-10.38a4.91,4.91,0,0,1,.25,1.29c-.32,5.09,1.08,10.16,6.13,11.23,3.49.73,8.29-.94,11.4-3.12,4.29-3,2.42-7.45.1-11.31a5.37,5.37,0,0,1-.79-2.5c-.09-3.75.45-7.6-.26-11.21-.33-1.68-3-2.92-3.58-3.45l-7.28,11.53c-2.32-3.92-3.87-6.52-5.41-9.13s-3.17-5.42-4.75-8.13C169.06,799,168.91,798.55,168.75,798.08Zm15.65-4.15c.92-1.25,2.86-2.95,2.54-3.67-.85-2-2.66-3.52-4.08-5.23l-2.7,2Z"/><path class="cls-1" d="M124.21,104.43c-.56.56-2.49,2.55-4.4,4.51-.4-2.11-1-5.09-1.55-8.07l-2.85.5c1.39,7.13,2.78,14.27,4.35,22.3l4,1.08.21,1.78c-2.26.24-5.54,1.5-6.55.49-1.46-1.47-1.29-4.57-1.82-7l-2.09.33.76,6.85-1.24-.79c-2.78,5.48-6.27,10.75-8.07,16.55-1,3.07,1,7,1.67,10.56-2.69,2.6-6.49,5.16-8.48,8.72-.79,1.41,2.44,5.07,4.23,8.43,1.29-1.54,2-3.2,2.77-3.18,11.94.33,9.22-10.32,12.23-16.49,1.35-2.77,1.29-6.24,2-10l8.09-2.08-2.71-4.75c12.16-.19,9.52-8.22,7.6-15.89h2.26l3,12.85,8.5-8.89C144.68,110.51,135.73,107.42,124.21,104.43Z"/><path class="cls-1" d="M181.4,736.17l4.22-7.37,1.78.3v12.12l1.84.17,3.84-4.2-1.44-.25c1.26-6.61,2.51-13.21,4-21l7.06-4c-1.22,4.9-2.12,8.54-3.11,12.56,5.15,0,11.92.42,18.56-.27,1.91-.2,4.24-3.35,5-5.61.86-2.57.2-5.66.2-9H182.65c2.72,2,4.69,2.89,5.74,4.42.82,1.2.5,3.19.68,4.82-5.43-.47-2.63,5.12-5.25,7.25-4.12-5.59.29-17.48-11.39-16.73,2.25,3.69,5.27,7.26,6.71,11.39S180.56,729.92,181.4,736.17Z"/><path class="cls-1" d="M106,169.92c-.33,3.22-.52,5.09-.65,6.42-2.06-1.15-4.07-3.07-6.23-3.26a7.29,7.29,0,0,0-5.69,2.67c-.85,1.28-.4,5,.67,5.65,2.07,1.21,6.81,2,7.24,1.23,3.6-6.58,8.89-2.49,12.84-1.84,4.37.72,5.22-1.56,6-4.16,1.14-3.7-1.33-3.39-4.11-3.61C113,172.77,110,171.2,106,169.92Z"/><path class="cls-1" d="M64.51,164.52c-2.3-3.82-4.27-8-7.1-11.44-1.32-1.61-4.29-1.89-6.51-2.77a31.25,31.25,0,0,0,.5,5.84C53.41,163.45,59.5,163.73,64.51,164.52Z"/><path class="cls-1" d="M88.23,156.76l-5.5-7.63c-2.24,3.25-4.85,7.05-7.18,10.45l15.16-3.93Z"/><path class="cls-1" d="M178.66,823.86l4.05,9.83c2.14-2.08,4.5-3.56,5.51-5.68.57-1.17-.86-4.74-1.83-4.93C184,822.61,181.39,823.5,178.66,823.86Z"/><path class="cls-1" d="M71.2,153.25l-4.13-5.48c-1.61,2.12-3.57,4.1-4.58,6.48-.25.6,2.72,3.69,3.88,3.5C68,157.5,69.23,155.23,71.2,153.25Z"/><path class="cls-1" d="M222.21,130.64c.82,1.19,1.63,2.38,2.63,3.85,3.15-12.69,2.95-15.78-1-17.29l-1.41,13.62Z"/><path class="cls-1" d="M85.57,116.59c.55,1.84,1.1,3.67,1.62,5.43l11-2.73L95,114.94Z"/><path class="cls-1" d="M222.4,130.82l-9.14,5.78,9,5.5c0-3.6,0-7.53,0-11.45Z"/><path class="cls-1" d="M177.29,739.49l-10.6-4.61c2.32,2.58,3.75,5,5.89,6.28,1.39.82,3.8-.1,5.75-.25Z"/><path class="cls-1" d="M89.38,754.66c4.22,2.68,6.49,5,9,5.34,1.29.16,4.48-3.61,4.21-5.13-.37-2-3.13-4.79-5.13-5S93.28,752.18,89.38,754.66Z"/></g></svg>