<svg xmlns="http://www.w3.org/2000/svg" viewBox="0 0 397.26 484.76"><defs><style>.cls-1{fill:#b4905b;}</style></defs><title>website_elevatormenu</title><g id="Layer_6" data-name="Layer 6"><path class="cls-1" d="M304.91,236.36c-.12-8.41-.3-17.24-.3-26.07a2.79,2.79,0,0,1,1.85-2,33.69,33.69,0,0,1,5.68,0c.36,0,.9.13,1,.37,1.82,3.31,5.14,2.28,7.9,2.67a59,59,0,0,0,7,.39c1.77,0,3.43-.17,4.74-1.7a3.76,3.76,0,0,1,2.37-.92,27.82,27.82,0,0,1,3.87.08c3.89.19,4,.33,3.56,4.11a58.13,58.13,0,0,0-.39,6c0,1.88,1.06,2.77,3,3,4.32.46,4.28.53,4.36,4.87.05,2.79.23,5.59.27,8.39,0,1.22.51,1.81,1.74,1.86,1.43.06,2.87.26,4.3.25a5.92,5.92,0,0,1,6.13,6.48c0,.67.09,1.36,0,2-.42,3.52-1.81,5.62-5.66,5.53-17.76-.41-35.51-.48-53.27-.77-4.85-.07-9.68-.58-14.53-.66-5.45-.1-10.9.13-16.36,0-2,0-4-.8-6.06-.83-3-.05-6,.31-9,.41-4.15.14-8.3.23-12.45.24-.78,0-1.56-.68-2.35-.68a6.48,6.48,0,0,0-2.88.63c-2.56,1.33-5.53,2.23-7.05,4.93a62.92,62.92,0,0,0-2.57,6c-2.36,5.48-5.06,10.71-10.21,14.18a19.59,19.59,0,0,1-14.42,3.35,65.36,65.36,0,0,1-7.64-1.85c-1.31-.37-2.72-.91-1.68-3-2.4,1.1-3.5-.37-4.61-1.47-4.68-4.59-7-10.41-8.5-16.64a55.13,55.13,0,0,1,.14-27.22c2.84-10.81,9.4-18.35,20.62-20.69,6.61-1.38,12.42,1,17.57,5.48,5,4.34,7.51,10,9.62,15.91,1.29,3.63,3.62,6,7.47,6.34,6.17.56,12.36,1,18.55,1.24,6.63.25,13.28.26,19.92.24,8.1,0,16.2-.18,24.3-.3C302.1,236.62,303.23,236.48,304.91,236.36ZM194.18,242c-1.73,1.08-1.49,3.27-.9,4.82,1.11,2.91.36,6.29,2.49,8.91a16.32,16.32,0,0,1,1.46,2.82c2.07,3.91,4.92,6.95,9.55,7.47,4.85.54,8.86-1.09,11.33-5.5a24.65,24.65,0,0,0,3-6.59c.64-3,2.75-5.63,2-8.91a41.64,41.64,0,0,1-.87-5.07c-.09-.85.46-1.81.26-2.6-.63-2.54-1.48-5-2.27-7.53a2.54,2.54,0,0,0-.66-1.06,74.61,74.61,0,0,1-5.94-5.41c-1.57-1.77-3.6-1.66-5.31-1.44-2.09.26-4.06,1.51-6.08,2.31-.39.15-.82.19-1.22.33a5.19,5.19,0,0,0-1.93.81,16.83,16.83,0,0,0-3.15,3.82,11.91,11.91,0,0,0-1.27,4.76,38.09,38.09,0,0,0,.52,5.9l-3.5-1.47Zm2.74,22.35c-1.15.84-.92,2.31-.19,3.59a2.8,2.8,0,0,0,2.14,1.28,10.77,10.77,0,0,0,3-1.47c-1.56-.32-3.07.34-4-.12C197.19,267.24,197.21,265.42,196.92,264.3Zm77.57-26c1.32,1.47,2.51,2.16,4.06,0Z"/><path class="cls-1" d="M110.92,197a64.49,64.49,0,0,1-1.45-6.41,91.73,91.73,0,0,1-.84-17.31l2.66,3.12c.47-2.72,1.91-5.86,1.2-8.4-.84-3-3.17-5.86-5.56-8s-5.44-3-8.22-4.48l-1,.94c.39,1.58.79,3.17,1.3,5.24-1.17-.32-2.35-.6-3.49-1-7.12-2.31-14.17-4.88-21.37-6.9a54.82,54.82,0,0,1-27.43-17.28c-1.55-1.81-1.32-5.27-3-6.88-10.26-10-13.3-22.31-12.13-36,1.21-14.12,7-26.3,16.41-36.84C60.38,43,76,35.25,94.06,32.3c23.31-3.8,46.4-3.84,68.6,5.74,9.32,4,18.65,8.82,24.29,17.28,5.79,8.68,13.54,16.61,15,27.78.17,1.35,1.13,2.59,1.93,4.36a19.05,19.05,0,0,0-.85,4.3c-.1,14.15-5,26.2-14.44,36.83a103.56,103.56,0,0,1-24.19,19.81c-3.72,2.24-7.3,1.71-9.53-1.05-9.19-.28-12.95,7.11-18,12.44-4.55,4.76-5.36,18.05-1.59,21.34-3,2.26-3.24,5-1.34,8.13a2.76,2.76,0,0,1,.42,2.13c-2.4,4.64-.89,9.69-1.61,14.5-.9,6.06-1.36,12.2-1.69,18.32q-1.11,20.92-1.89,41.87c-.57,15.55-1.7,31.14-1.11,46.65.27,7.36-1.9,15.2,2.22,22.46.92,1.62-.85,4.77-1.39,7.27,2.45.22,3.84,0,2.57,3.17-1.62,4-2.87,8.66-2.54,12.9.44,5.78.59,11.29-1.43,16.76-.16.42-.42,1-.28,1.3,3.19,7.05-2.17,13.48-1.42,20.34.41,3.68.68,7.36,1,11a26.66,26.66,0,0,1,.09,2.68c-.09,6.44-.52,12.89-.12,19.3.17,2.64,1.83,5.35,3.32,7.7,3.58,5.62,4.63,11.56,2.46,17.79-.55,1.58-2.57,3.58-4.09,3.74a96.61,96.61,0,0,1-15.31.27c-5.43-.3-7.4-2.62-7.29-8.21q.69-33.58,1.57-67.16c.26-10.34.54-20.69,1-31,.31-6.62,1-13.22,1.61-20.77l5.88,2.87c0-6.44,0-13.05,0-19.66,0-2,.67-4.08.45-6.06-.27-2.4-1.15-4.74-1.94-7.81L109.56,305l1.83-12.73,5.39,3.84a77.4,77.4,0,0,0-.54-9.12c-.51-2.92-1.69-5.69-6.9-3.38,0-12.55,0-24.63,0-36.72a25.17,25.17,0,0,1,.53-2.64c.46-4,2.62-7.08,1.63-12-2.07-10.27-1.57-21.06-2-31.64,0-1.23.83-2.5,1.29-3.75.13,3.23.21,6.46.4,9.68.09,1.49.39,3,.59,4.45a25.74,25.74,0,0,0,2-8.95c0-3-.94-5.94-1.47-8.91l-.76-.14Zm-54.2-95a19.66,19.66,0,0,0,.68,3.76c1.74,4.06.54,9.25,5,12.31,3.46,2.38,6.56,5.28,10,7.61,7.85,5.26,16.63,8,26,7.22,7.45-.58,14.82-2.17,22.22-3.39,2.36-.4,4.65-1.28,7-1.58q9.93-1.26,19.89-2.18c3.85-.36,8.26.75,11.5-.77,10.92-5.13,18.73-13.31,21.5-25.59.51-2.23,1.9-4.26,2.89-6.38l1.27.14c-1.63-3.85-3.27-7.69-5.36-12.61-.4,2-.53,2.6-.71,3.46-1.48-3.36-2.85-6.59-4.35-9.75a4.8,4.8,0,0,0-1.84-1.82c-2.51-1.54-5.28-2.72-7.62-4.48a59.28,59.28,0,0,0-24.62-10.63,112,112,0,0,0-40-.63,77,77,0,0,0-34.74,14.6c-2,1.52-4.8,2.55-6,4.54C57.23,79.92,55,84.37,54.1,89c-.93,5-.21,10.3-.21,15.29Z"/><path class="cls-1" d="M144,415c9.17-13.46,8.93-24.29.67-25.62q.6-5.26,1.17-10.37c4.32,2.22,4.87,1.67,6.13-6.74l-5.45-2.11q12.14-.46,24.26-.93c4-.15,8.11-.5,12.14-.27a4.75,4.75,0,0,1,3.45,2.72c1.7,6,1,7.08-4.85,9.36-3.44,1.34-7.45,2.11-6.58,7.48.54,3.32,1.81,5.1,5.45,5.17,6.69.13,10.47,6.67,6.65,12.21-1.25,1.81-4.94,2.25-7.62,2.67-3,.48-5.58.79-6,4.63s.44,6.5,4.87,6.86a25.75,25.75,0,0,1,3.5.83c3.13.75,5.07,1.94,4.1,5.91-.88,3.64-2.18,5.54-6.28,5.27-10.91-.74-21.85-1.2-32.2-1.73,1.14-4.8,2.25-9.43,3.36-14.1Z"/></g></svg>