<svg id="Layer_1" data-name="Layer 1" xmlns="http://www.w3.org/2000/svg" xmlns:xlink="http://www.w3.org/1999/xlink" viewBox="0 0 363.54 153.58"><defs><style>.cls-1,.cls-2{fill:none;}.cls-2{clip-rule:evenodd;}.cls-3{clip-path:url(#clip-path);}.cls-4{clip-path:url(#clip-path-2);}.cls-5{isolation:isolate;}.cls-6{clip-path:url(#clip-path-3);}.cls-7{clip-path:url(#clip-path-4);}.cls-8{fill:#b38f5a;}.cls-9{clip-path:url(#clip-path-6);}.cls-10{clip-path:url(#clip-path-8);}.cls-11{clip-path:url(#clip-path-10);}.cls-12{clip-path:url(#clip-path-12);}.cls-13{clip-path:url(#clip-path-14);}.cls-14{clip-path:url(#clip-path-16);}.cls-15{clip-path:url(#clip-path-18);}.cls-16{clip-path:url(#clip-path-20);}.cls-17{clip-path:url(#clip-path-22);}.cls-18{clip-path:url(#clip-path-23);}.cls-19{clip-path:url(#clip-path-25);}.cls-20{clip-path:url(#clip-path-26);}</style><clipPath id="clip-path"><rect class="cls-1" x="1" y="103.11" width="46.56" height="46.57"/></clipPath><clipPath id="clip-path-2"><rect class="cls-1" x="-10" y="-2564.42" width="375" height="3116"/></clipPath><clipPath id="clip-path-3"><rect class="cls-1" x="1" y="102.58" width="47" height="48"/></clipPath><clipPath id="clip-path-4"><path class="cls-2" d="M32.91,132a50.2,50.2,0,0,1,11.54,4.51c1.08-.84,2.12-1.72,3.11-2.64a53.88,53.88,0,0,0-13.72-5.57A52.77,52.77,0,0,0,24,126.72h0a52.77,52.77,0,0,0-1.53-9.89,53.88,53.88,0,0,0-5.57-13.72c-.92,1-1.8,2-2.64,3.11a50.2,50.2,0,0,1,4.51,11.54,49.65,49.65,0,0,1,1.38,8.87,54,54,0,0,0-14.25,2,1.9,1.9,0,0,0-1.39,1.94,33.61,33.61,0,0,1-3.27,16.33,1.91,1.91,0,0,0,2.54,2.55,33.65,33.65,0,0,1,16.34-3.27A1.94,1.94,0,0,0,22,144.82a54.45,54.45,0,0,0,2-14.25A49.68,49.68,0,0,1,32.91,132m-14.19,10.4a37.33,37.33,0,0,0-12.35,2,37.64,37.64,0,0,0,2-12.35,50.07,50.07,0,0,1,11.9-1.51,50.81,50.81,0,0,1-1.51,11.91"/></clipPath><clipPath id="clip-path-6"><path class="cls-2" d="M33.44,115.67a93.52,93.52,0,0,0-10-1.17c.18.64.36,1.28.52,1.93s.32,1.31.46,2c2.33.18,4.67.45,7,.82h0c.37,2.32.64,4.66.82,7,.66.14,1.32.3,2,.46s1.29.34,1.93.52a93.52,93.52,0,0,0-1.17-10,2,2,0,0,0-1.56-1.56"/></clipPath><clipPath id="clip-path-8"><path class="cls-2" d="M1.91,118.54a1.9,1.9,0,0,0,1.79.7,89.24,89.24,0,0,1,13.44-1.1q-.5-1.92-1.14-3.81a93.36,93.36,0,0,0-9.45.66,52.22,52.22,0,0,1,17.2-20.43A1.9,1.9,0,0,0,24.58,93V19.24L14.82,3.9c-.64,1.39-9.16,15.34-9.16,15.34l.17,74.84a2,2,0,0,0,.52,1.32,50.35,50.35,0,0,1,3.5,4.09c.84-1,1.71-1.94,2.62-2.86q-1.35-1.71-2.82-3.3V19.24L14.82,9.11l5.92,10.13,0,72.76A56.35,56.35,0,0,0,2.51,114.61c-.3.67-.6,1.35-.87,2a1.91,1.91,0,0,0,.27,1.91"/></clipPath><clipPath id="clip-path-10"><path class="cls-2" d="M327.94,115.8a1.93,1.93,0,0,0-.53,1,93.22,93.22,0,0,0-1.17,10c.64-.19,1.28-.36,1.93-.53s1.31-.31,2-.45q.27-3.51.82-7h0c2.32-.36,4.65-.64,7-.82.14-.66.29-1.31.46-2s.34-1.28.52-1.92a93.52,93.52,0,0,0-10,1.17,2,2,0,0,0-1,.53"/></clipPath><clipPath id="clip-path-12"><path class="cls-2" d="M358,130.19a1.91,1.91,0,0,0-1.39-1.94,54.45,54.45,0,0,0-14.26-2,49.42,49.42,0,0,1,5.9-20.41c-.84-1.08-1.72-2.11-2.64-3.11A53.88,53.88,0,0,0,340,116.42a52.89,52.89,0,0,0-1.53,9.89h0a53.52,53.52,0,0,0-23.62,7.11c1,.91,2,1.79,3.11,2.63a49.16,49.16,0,0,1,20.41-5.89,54.94,54.94,0,0,0,2,14.26,1.93,1.93,0,0,0,1.95,1.38,33.61,33.61,0,0,1,16.33,3.28,1.91,1.91,0,0,0,2.55-2.55A33.55,33.55,0,0,1,358,130.19m-14.26,11.75A50.22,50.22,0,0,1,342.18,130a50.66,50.66,0,0,1,11.9,1.51,37.38,37.38,0,0,0,2,12.35,37.37,37.37,0,0,0-12.35-1.95"/></clipPath><clipPath id="clip-path-14"><path class="cls-2" d="M359.9,114.21a56.45,56.45,0,0,0-18.25-22.62l.53-72.35L347,8.69l5.75,10.55V92.92q-1.47,1.6-2.82,3.3c.9.92,1.78,1.88,2.62,2.86A52,52,0,0,1,356,95a1.89,1.89,0,0,0,.54-1.33V19.24L347,.58l-9.29,18.66.11,73.34a1.92,1.92,0,0,0,.84,1.58,52.24,52.24,0,0,1,17.19,20.42,93.54,93.54,0,0,0-9.45-.65c-.43,1.25-.81,2.52-1.14,3.8a89,89,0,0,1,13.43,1.11,1.94,1.94,0,0,0,1.8-.7,1.91,1.91,0,0,0,.27-1.91c-.28-.68-.57-1.36-.87-2"/></clipPath><clipPath id="clip-path-16"><path class="cls-2" d="M90,131.43H305.51a56.41,56.41,0,0,0,22.61,18.25c.67.3,1.35.6,2,.87a1.91,1.91,0,0,0,2.61-2.06,89.11,89.11,0,0,1-1.1-13.43c-1.28.32-2.55.7-3.8,1.13a90.91,90.91,0,0,0,.65,9.46,52.4,52.4,0,0,1-20.43-17.21,1.89,1.89,0,0,0-1.57-.82H89.75c.09,1.27.18,2.54.29,3.81"/></clipPath><clipPath id="clip-path-18"><path class="cls-2" d="M256.26,142.55h-201q-1.59-1.49-3.3-2.82c-.92.9-1.87,1.77-2.86,2.61a50.35,50.35,0,0,1,4.09,3.5,1.91,1.91,0,0,0,1.32.52H256.41c-.05-1.27-.09-2.54-.15-3.81"/></clipPath><clipPath id="clip-path-20"><rect class="cls-1" x="29.78" y="127.62" width="226.4" height="23.08"/></clipPath><clipPath id="clip-path-22"><rect class="cls-1" x="29" y="127.58" width="228" height="24"/></clipPath><clipPath id="clip-path-23"><path class="cls-2" d="M30.51,150.28a1.87,1.87,0,0,0,1.9.27c.68-.27,1.36-.57,2-.87a56.48,56.48,0,0,0,22.61-18.25H256.18c-.06-1.27-.13-2.54-.19-3.81H56.06a1.88,1.88,0,0,0-1.57.82,52.4,52.4,0,0,1-20.43,17.21,90.91,90.91,0,0,0,.65-9.46c-1.25-.43-2.52-.81-3.8-1.13a90.43,90.43,0,0,1-1.1,13.43,1.87,1.87,0,0,0,.7,1.79"/></clipPath><clipPath id="clip-path-25"><path class="cls-2" d="M305.52,142.55H89.93c.17,1.27.36,2.54.55,3.81h215.8a1.87,1.87,0,0,0,1.31-.52,52.25,52.25,0,0,1,4.1-3.5c-1-.84-1.94-1.71-2.86-2.61q-1.71,1.34-3.31,2.82"/></clipPath><clipPath id="clip-path-26"><rect class="cls-1" x="-11.31" y="-2564.42" width="375" height="3116"/></clipPath></defs><g class="cls-3"><g class="cls-4"><g class="cls-5"><g class="cls-6"><g class="cls-7"><g class="cls-6"><rect class="cls-8" x="-4" y="98.11" width="56.56" height="56.57"/></g></g></g></g></g></g><g class="cls-9"><g class="cls-4"><rect class="cls-8" x="18.48" y="109.5" width="22.69" height="22.69"/></g></g><g class="cls-10"><g class="cls-4"><rect class="cls-8" x="-3.5" y="-1.1" width="33.08" height="125.37"/></g></g><g class="cls-11"><g class="cls-4"><rect class="cls-8" x="321.24" y="109.1" width="22.69" height="22.69"/></g></g><g class="cls-12"><g class="cls-4"><rect class="cls-8" x="309.84" y="97.7" width="56.56" height="56.57"/></g></g><g class="cls-13"><g class="cls-4"><rect class="cls-8" x="332.72" y="-4.42" width="33.19" height="128.28"/></g></g><g class="cls-14"><g class="cls-4"><rect class="cls-8" x="84.75" y="122.62" width="253.03" height="33.08"/></g></g><g class="cls-15"><g class="cls-4"><rect class="cls-8" x="44.09" y="134.73" width="217.32" height="16.64"/></g></g><g class="cls-16"><g class="cls-4"><g class="cls-5"><g class="cls-17"><g class="cls-18"><g class="cls-17"><rect class="cls-8" x="24.78" y="122.62" width="236.4" height="33.08"/></g></g></g></g></g></g><g class="cls-19"><g class="cls-20"><rect class="cls-8" x="84.93" y="134.73" width="231.75" height="16.64"/></g></g></svg>