<svg xmlns="http://www.w3.org/2000/svg" viewBox="0 0 3020.29 857.48"><defs><style>.cls-1{fill:#b4905b;}.cls-2{fill:#f1e8c0;}.cls-3{fill:#4b4945;}</style></defs><title>website_elevatormenu</title><g id="Layer_5" data-name="Layer 5"><path class="cls-1" d="M2337.06,417.06c-22.66,0-45.5-.85-68.12-2.53-26-1.94-52.15-5-77.82-9.15a3.54,3.54,0,0,1,1.13-7c25.47,4.1,51.45,7.16,77.22,9.08,26.9,2,54.13,2.82,81,2.42h.05a3.54,3.54,0,0,1,.06,7.08Q2343.81,417.06,2337.06,417.06Z"/><path class="cls-1" d="M680.25,417.06q-6.75,0-13.48-.1a3.54,3.54,0,0,1,.05-7.08h0c26.82.39,54.07-.41,81-2.42,25.76-1.92,51.75-5,77.22-9.08a3.54,3.54,0,0,1,1.13,7c-25.68,4.13-51.86,7.21-77.83,9.15C725.75,416.21,702.9,417.06,680.25,417.06Z"/><path class="cls-1" d="M2554,88.72a8.79,8.79,0,0,0,4-9.9c-4.43-13.12-27.7-5.7-32.24-19.12-1.86-5.52,2.32-11.22,7.82-13.07,5.85-2,13.52-.17,18.63-1.89,9.52-3.22,4.35-29.63,11.54-8.34,4.59,13.59-13.39,13.54-9.13,26.17,1.58,4.66,6.27,8.41,7.8,12.93,1.83,5.43-1.54,11-6.71,12.79A11.22,11.22,0,0,1,2554,88.72Z"/><path class="cls-1" d="M2554,92.26a3.54,3.54,0,0,1-1.66-6.66,5.28,5.28,0,0,0,2.34-5.65c-1.46-4.3-6-5.55-13.34-7.09-7.49-1.58-16-3.37-18.9-12-2.65-7.85,3.14-15.23,10-17.56,3.58-1.2,7.38-1.21,11.06-1.22,2.91,0,5.65,0,7.57-.67,2.54-.85,3.6-6.75,4.17-9.92.61-3.37,1.18-6.56,4.48-6.81,3.72-.26,5,3.6,7.38,10.62,3.06,9-1.9,13.82-5.52,17.31-3.46,3.32-4.93,5-3.6,8.86a21.9,21.9,0,0,0,3.43,5.57,27.07,27.07,0,0,1,4.36,7.36,13.78,13.78,0,0,1-8.93,17.28,14.14,14.14,0,0,1-2.31.56A3.53,3.53,0,0,1,2554,92.26ZM2560.79,39c-1.21,3.89-3.32,7.74-7.45,9.14-3,1-6.48,1-9.83,1-3.11,0-6.32,0-8.8.86-3.68,1.24-6.81,5-5.59,8.59,1.52,4.51,6.17,5.79,13.65,7.36,4,.84,8.25,1.74,11.78,3.72a22.48,22.48,0,0,1-3.28-6c-2.81-8.32,1.93-12.89,5.4-16.22C2559.88,44.38,2561.56,42.55,2560.79,39Z"/><path class="cls-1" d="M463.22,88.72a8.79,8.79,0,0,1-4-9.9c4.43-13.12,27.7-5.7,32.24-19.12,1.86-5.52-2.32-11.22-7.82-13.07-5.85-2-13.52-.17-18.63-1.89-9.52-3.22-4.35-29.63-11.54-8.34-4.59,13.59,13.39,13.54,9.13,26.17-1.58,4.66-6.27,8.41-7.8,12.93-1.83,5.43,1.54,11,6.71,12.79A11.22,11.22,0,0,0,463.22,88.72Z"/><path class="cls-1" d="M463.23,92.26a3.53,3.53,0,0,1-.56-.05,14.14,14.14,0,0,1-2.31-.56,13.77,13.77,0,0,1-8.93-17.28A27.07,27.07,0,0,1,455.79,67a21.9,21.9,0,0,0,3.43-5.57c1.32-3.91-.15-5.54-3.6-8.86C452,49.09,447,44.32,450.1,35.27c2.37-7,3.66-10.87,7.38-10.62,3.3.25,3.87,3.44,4.48,6.81.57,3.17,1.63,9.07,4.16,9.92,1.93.65,4.67.66,7.58.67,3.68,0,7.48,0,11.05,1.22,6.9,2.33,12.69,9.71,10,17.56-2.93,8.66-11.41,10.45-18.9,12C468.56,74.4,464,75.65,462.55,80a5.28,5.28,0,0,0,2.34,5.65,3.54,3.54,0,0,1-1.66,6.66ZM456.41,39c-.77,3.61.91,5.43,4.12,8.53,3.47,3.33,8.21,7.9,5.4,16.22a22.51,22.51,0,0,1-3.29,6c3.54-2,7.81-2.88,11.79-3.72,7.48-1.57,12.13-2.85,13.65-7.36,1.22-3.6-1.91-7.35-5.59-8.59-2.48-.84-5.69-.85-8.8-.86-3.35,0-6.82,0-9.83-1C459.73,46.69,457.62,42.84,456.41,39Z"/><path class="cls-1" d="M2625.52,355.29a96.6,96.6,0,0,1-10.9-.61c-29.51-3.34-56.08-20.84-69.34-45.68-14.07-26.36-11.92-59.38,5.36-82.17,18-23.75,51.63-33.47,78.25-22.58,27.72,11.33,43.91,44.37,35.35,72.14-4.17,13.49-13.69,24.9-25.49,30.51-13,6.17-28.58,5.18-39.73-2.53-12-8.29-17.72-24-13.58-37.29,3.62-11.61,14.46-20,25.83-20h.22a23.45,23.45,0,0,1,13.12,4.39,24.85,24.85,0,0,1,10.1,15.79,20.59,20.59,0,0,1-3.1,15.2,17.16,17.16,0,0,1-10.68,7.32,14.46,14.46,0,0,1-10.74-1.84,12.22,12.22,0,0,1-5.45-7.46,10.46,10.46,0,0,1,1.09-7.85,9.15,9.15,0,0,1,5.42-4.23,8,8,0,0,1,6,.65,7,7,0,0,1,3.43,4.12,6.33,6.33,0,0,1-.37,4.79,5.8,5.8,0,0,1-3.28,2.91,5.4,5.4,0,0,1-4-.17,4.77,4.77,0,0,1-.73-.42,5.1,5.1,0,0,0,1.66,1.64,7.36,7.36,0,0,0,5.49.94,10,10,0,0,0,6.3-4.31,13.53,13.53,0,0,0,2-10,17.78,17.78,0,0,0-7.23-11.3,16.28,16.28,0,0,0-9.1-3.09h-.15c-8.22,0-16.39,6.42-19.07,15-3.19,10.26,1.47,22.88,10.84,29.36,9.11,6.29,21.93,7.06,32.67,1.95,10-4.77,18.18-14.56,21.76-26.2,7.53-24.41-6.78-53.49-31.26-63.5-23.74-9.71-53.8-1-69.93,20.3-15.4,20.31-17.35,51-4.76,74.56,12.18,22.82,36.67,38.91,63.89,42,25.77,2.9,52.94-5.5,74.53-23.09a114.54,114.54,0,0,0,36.44-53.67c6.11-19.34,7.31-41,3.57-64.48-6.19-38.84-24.9-74.46-52.67-100.28-28.53-26.53-66.51-42-104.21-42.41a3.54,3.54,0,0,1,0-7.08h0c39.43.44,79.15,16.59,108.95,44.31,28.92,26.89,48.4,64,54.84,104.35,3.91,24.54,2.63,47.33-3.81,67.72a121.66,121.66,0,0,1-38.72,57C2674.37,346.37,2649.77,355.29,2625.52,355.29Zm-9.92-76.73Z"/><path class="cls-1" d="M391.67,355.29c-24.25,0-48.84-8.92-68.88-25.25a121.66,121.66,0,0,1-38.72-57c-6.44-20.39-7.72-43.18-3.81-67.72,6.44-40.4,25.92-77.46,54.83-104.35,29.81-27.72,69.53-43.87,109-44.31a3.44,3.44,0,0,1,3.58,3.5,3.54,3.54,0,0,1-3.5,3.58c-37.7.42-75.68,15.88-104.22,42.41-27.76,25.82-46.47,61.44-52.66,100.28-3.74,23.45-2.54,45.14,3.57,64.48a114.54,114.54,0,0,0,36.44,53.67c21.59,17.59,48.77,26,74.53,23.09,27.22-3.08,51.7-19.17,63.89-42,12.59-23.59,10.64-54.25-4.76-74.56-16.13-21.28-46.2-30-69.93-20.3-24.48,10-38.79,39.09-31.26,63.5,3.58,11.64,11.72,21.43,21.76,26.2,10.73,5.11,23.56,4.34,32.67-1.95,9.37-6.48,14-19.1,10.84-29.36-2.68-8.59-10.85-15-19.07-15h-.16a16.24,16.24,0,0,0-9.09,3.09,17.78,17.78,0,0,0-7.23,11.3,13.53,13.53,0,0,0,2,10,10,10,0,0,0,6.29,4.31,7.37,7.37,0,0,0,5.5-.94,5.2,5.2,0,0,0,1.66-1.64,4.72,4.72,0,0,1-.73.41,5.31,5.31,0,0,1-4,.18A5.8,5.8,0,0,1,396.9,278a6.33,6.33,0,0,1-.36-4.81,7,7,0,0,1,3.42-4.1,8,8,0,0,1,6-.65,9.15,9.15,0,0,1,5.42,4.23,10.51,10.51,0,0,1,1.09,7.85A12.2,12.2,0,0,1,407,288a14.43,14.43,0,0,1-10.73,1.84,17.16,17.16,0,0,1-10.68-7.32,20.59,20.59,0,0,1-3.1-15.2,24.85,24.85,0,0,1,10.1-15.79,23.44,23.44,0,0,1,13.11-4.39h.23c11.38,0,22.21,8.37,25.83,20,4.14,13.31-1.57,29-13.58,37.28-11.15,7.7-26.75,8.7-39.73,2.52-11.8-5.6-21.32-17-25.49-30.51-8.56-27.76,7.63-60.8,35.35-72.13,26.61-10.89,60.25-1.18,78.25,22.58,17.28,22.79,19.43,55.81,5.36,82.17-13.26,24.84-39.83,42.34-69.34,45.68A96.91,96.91,0,0,1,391.67,355.29Zm9.93-76.73Z"/><path class="cls-1" d="M2789.91,297.73c-.52,0-1,0-1.57-.06a21.23,21.23,0,0,1-15.87-9.71,18.39,18.39,0,0,1-2.46-16.09c1.34-3.9,5.13-8.46,10.28-9.27a9.85,9.85,0,0,1,7.28,1.69,8.59,8.59,0,0,1,3.53,5.47,7.59,7.59,0,0,1-1.12,5.63,6.76,6.76,0,0,1-4.22,2.91,6.1,6.1,0,0,1-4.57-.76,5.6,5.6,0,0,1-2.51-3.41,5.23,5.23,0,0,1,.19-3.18,7.94,7.94,0,0,0-2.16,3.22,11.33,11.33,0,0,0,1.67,9.89,14.34,14.34,0,0,0,10.49,6.56c7.88.59,16.06-5.63,18.66-14.15,2.38-7.79.6-17.4-4.76-25.71-8-12.32-22.43-20.71-38.72-22.45-18.38-1.95-34.88,4.43-45.49,10.12-9.44,5.07-18.79,11.93-28.57,21a3.54,3.54,0,0,1-5.93-2.4,233.25,233.25,0,0,0-10.29-57.93,3.53,3.53,0,0,1,2-4.35c33-13.62,62.44-36.47,84.57-64.68-11.3-17.34-25.06-34.2-43.43-49.24a341,341,0,0,1-66.3,59.47,3.55,3.55,0,0,1-5-.95c-12.27-18.43-25-30.9-40.06-39.23a3.55,3.55,0,0,1-.29-6A164.42,164.42,0,0,0,2655,41.33a3.53,3.53,0,0,1,4.33-1.51,225.7,225.7,0,0,1,56.43,31.27,276.38,276.38,0,0,0,25.65-37.31,3.53,3.53,0,0,1,5.3-1,322.12,322.12,0,0,1,47.7,48.42,3.51,3.51,0,0,1,.52,3.55,207.83,207.83,0,0,1-26,45.74c10.13,16.07,18.18,32.2,25.64,47.17,22.6,45.3,40.44,81.07,94.49,81.07,14.58,0,23-6.2,31.94-12.76s18.42-13.56,34-13.56c15.33,0,31.72,7.91,33.77,25.58a30.64,30.64,0,0,1-6.16,22.32,25.22,25.22,0,0,1-16.42,9.67,20.87,20.87,0,0,1-15.33-3.72,17.43,17.43,0,0,1-7-11.12,14.63,14.63,0,0,1,2.27-10.82,12.43,12.43,0,0,1,7.76-5.25,10.65,10.65,0,0,1,7.92,1.4,9.24,9.24,0,0,1,4.07,5.64,8.13,8.13,0,0,1-.88,6,7.17,7.17,0,0,1-4.28,3.3,6.45,6.45,0,0,1-4.83-.55,5.86,5.86,0,0,1-2.8-3.41,5.36,5.36,0,0,1,.33-4.06,5.46,5.46,0,0,1,.65-1,5.51,5.51,0,0,0-2.07,1.83,7.57,7.57,0,0,0-1.17,5.61,10.37,10.37,0,0,0,4.18,6.63,13.86,13.86,0,0,0,10.17,2.47,18.24,18.24,0,0,0,11.85-7,23.66,23.66,0,0,0,4.74-17.2c-1.66-14.26-15.44-19.32-26.74-19.32-13.24,0-21.29,5.91-29.8,12.18-9.45,7-19.22,14.14-36.13,14.14-58.43,0-78.07-39.38-100.82-85-7.23-14.5-14.76-29.59-23.89-44.44-22,27.42-50.77,49.77-82.87,63.64a237.58,237.58,0,0,1,9.15,49.36,137.72,137.72,0,0,1,24.59-17.18c16.48-8.85,33.61-12.63,49.59-10.92,18.39,2,34.81,11.55,43.91,25.64,6.58,10.19,8.62,21.71,5.59,31.62C2810.88,289.73,2800.58,297.73,2789.91,297.73Zm-6.8-22.87ZM2613.82,96.75c13.21,8.29,24.7,19.79,35.7,35.67a332.63,332.63,0,0,0,61.84-56,219.57,219.57,0,0,0-51.77-28.92A170.93,170.93,0,0,1,2613.82,96.75Zm107.52-21.26a220.65,220.65,0,0,1,43.47,48.67A200.94,200.94,0,0,0,2787.62,84a313,313,0,0,0-42.13-43.09A285,285,0,0,1,2721.34,75.49Z"/><path class="cls-1" d="M227.29,297.73c-10.67,0-21-8-24.39-19.19-3-9.91-1-21.43,5.59-31.62,9.1-14.09,25.52-23.68,43.91-25.64,16-1.7,33.11,2.07,49.59,10.91a138.68,138.68,0,0,1,24.59,17.19A237.58,237.58,0,0,1,335.73,200c-32.1-13.87-60.86-36.22-82.88-63.64-9.12,14.85-16.65,29.94-23.88,44.44-22.75,45.61-42.39,85-100.83,85-16.9,0-26.67-7.19-36.12-14.14-8.52-6.27-16.56-12.18-29.8-12.18-11.3,0-25.08,5.06-26.74,19.32A23.66,23.66,0,0,0,40.22,276a18.24,18.24,0,0,0,11.85,7,13.87,13.87,0,0,0,10.17-2.47,10.37,10.37,0,0,0,4.18-6.63,7.53,7.53,0,0,0-1.18-5.61,5.34,5.34,0,0,0-2.06-1.83,5.32,5.32,0,0,1,1,5.05,5.84,5.84,0,0,1-2.81,3.41,6.37,6.37,0,0,1-4.82.54,7.09,7.09,0,0,1-4.28-3.3,8,8,0,0,1-.88-6,9.24,9.24,0,0,1,4.07-5.64,10.63,10.63,0,0,1,7.91-1.4,12.43,12.43,0,0,1,7.77,5.25,14.63,14.63,0,0,1,2.27,10.82,17.43,17.43,0,0,1-7,11.12A20.89,20.89,0,0,1,51,290a25.29,25.29,0,0,1-16.43-9.66A30.71,30.71,0,0,1,28.45,258c2.05-17.67,18.44-25.58,33.77-25.58,15.57,0,24.93,6.89,34,13.56s17.36,12.76,31.93,12.76c54.06,0,71.9-35.77,94.49-81.07,7.47-15,15.52-31.1,25.65-47.17a207.83,207.83,0,0,1-26.05-45.74,3.53,3.53,0,0,1,.51-3.55,322.65,322.65,0,0,1,47.71-48.42,3.53,3.53,0,0,1,5.3,1A276.38,276.38,0,0,0,301.4,71.09a225.7,225.7,0,0,1,56.43-31.27,3.53,3.53,0,0,1,4.33,1.51,164.31,164.31,0,0,0,49.73,52.76,3.55,3.55,0,0,1-.29,6c-15.06,8.33-27.79,20.8-40.06,39.23a3.55,3.55,0,0,1-5,.95,341,341,0,0,1-66.3-59.47c-18.37,15-32.14,31.9-43.43,49.24,22.13,28.21,51.61,51.06,84.57,64.68a3.53,3.53,0,0,1,2,4.35A233.25,233.25,0,0,0,333.14,257a3.54,3.54,0,0,1-5.93,2.4c-9.79-9.06-19.13-15.92-28.57-21-10.61-5.7-27.13-12.07-45.49-10.12-16.29,1.74-30.76,10.13-38.72,22.45-5.36,8.31-7.15,17.92-4.76,25.71,2.6,8.52,10.8,14.75,18.66,14.15a14.34,14.34,0,0,0,10.49-6.56,11.33,11.33,0,0,0,1.67-9.89,7.94,7.94,0,0,0-2.16-3.22,5.2,5.2,0,0,1,.19,3.17,5.57,5.57,0,0,1-2.52,3.42,6.12,6.12,0,0,1-4.56.76,6.76,6.76,0,0,1-4.22-2.91,7.58,7.58,0,0,1-1.13-5.62,8.64,8.64,0,0,1,3.54-5.48,9.81,9.81,0,0,1,7.28-1.69c5.15.81,8.94,5.37,10.28,9.27A18.39,18.39,0,0,1,244.73,288a21.23,21.23,0,0,1-15.87,9.71C228.33,297.71,227.81,297.73,227.29,297.73Zm6.8-22.87ZM305.84,76.43a332.57,332.57,0,0,0,61.83,56c11-15.88,22.5-27.38,35.71-35.67a170.93,170.93,0,0,1-45.77-49.24A219.57,219.57,0,0,0,305.84,76.43ZM229.58,84a200.94,200.94,0,0,0,22.81,40.16,220.65,220.65,0,0,1,43.47-48.67,285,285,0,0,1-24.15-34.58A313,313,0,0,0,229.58,84Z"/><path class="cls-1" d="M2914.19,258.53a3.54,3.54,0,0,1-2.26-6.26c.49-.42,1-.85,1.45-1.31,7.89-7.66,10-20.57,4.76-29.39a20.65,20.65,0,0,0-13-9.16,17.76,17.76,0,0,0-13.89,2.1,16.2,16.2,0,0,0-6.78,11.61c-.63,4.79.63,9.49,3.38,12.57a12.18,12.18,0,0,0,8.24,4.08,9.12,9.12,0,0,0,6.5-2.09,6.57,6.57,0,0,0,2.32-4.35,6.15,6.15,0,0,0,0-.74,5.21,5.21,0,0,1-2.12,2.67,5.65,5.65,0,0,1-4.17.78,6.15,6.15,0,0,1-3.87-2.56,6.76,6.76,0,0,1-1.11-5,7.65,7.65,0,0,1,3-4.91,8.72,8.72,0,0,1,6.34-1.61,10,10,0,0,1,6.52,3.74,11.59,11.59,0,0,1,2.41,8.39,13.57,13.57,0,0,1-4.83,9,16.06,16.06,0,0,1-11.55,3.71,19.19,19.19,0,0,1-13-6.42,22.73,22.73,0,0,1-5.11-18.2,23.25,23.25,0,0,1,9.91-16.6,24.74,24.74,0,0,1,19.38-3.08A27.41,27.41,0,0,1,2924.23,218c6.93,11.7,4.38,28.08-5.92,38.08-.6.58-1.22,1.14-1.85,1.67A3.56,3.56,0,0,1,2914.19,258.53Z"/><path class="cls-1" d="M103,258.53a3.56,3.56,0,0,1-2.27-.82c-.63-.53-1.25-1.09-1.85-1.67C88.58,246,86,229.66,93,218a27.46,27.46,0,0,1,17.52-12.44,24.74,24.74,0,0,1,19.38,3.08,23.25,23.25,0,0,1,9.91,16.6,22.73,22.73,0,0,1-5.11,18.2,19.19,19.19,0,0,1-13,6.42,16.1,16.1,0,0,1-11.56-3.71,13.6,13.6,0,0,1-4.82-9,11.59,11.59,0,0,1,2.41-8.39,10,10,0,0,1,6.52-3.74,8.63,8.63,0,0,1,6.33,1.61,7.62,7.62,0,0,1,3,4.91,6.76,6.76,0,0,1-1.11,5,6.15,6.15,0,0,1-3.87,2.56,5.63,5.63,0,0,1-4.18-.79,5.18,5.18,0,0,1-2.11-2.66,6.15,6.15,0,0,0,0,.74,6.53,6.53,0,0,0,2.32,4.35,9,9,0,0,0,6.5,2.09,12.18,12.18,0,0,0,8.24-4.08c2.75-3.08,4-7.78,3.38-12.57A16.2,16.2,0,0,0,126,214.51a17.82,17.82,0,0,0-13.9-2.1,20.61,20.61,0,0,0-13,9.16c-5.23,8.82-3.13,21.73,4.76,29.39.47.46,1,.89,1.45,1.31a3.54,3.54,0,0,1-2.26,6.26Z"/><path class="cls-1" d="M2543.56,251.28a3.78,3.78,0,0,1-.74-.07,3.54,3.54,0,0,1-2.72-4.2,54.55,54.55,0,0,1,3.7-11.21c3.93-8.7,10.15-16.83,18.48-24.15a185.37,185.37,0,0,1,16.19-12.24c3.12-2.18,6.34-4.43,9.39-6.74,9.94-7.53,16.21-14.54,19.73-22.07,2.77-5.92,3.64-12.06,2.44-17.29-1.3-5.72-5.29-10.49-10.14-12.17s-11,.22-13.46,4.32a9.16,9.16,0,0,0,4.4,12.74,6.59,6.59,0,0,0,4.92.11,6.09,6.09,0,0,0,.63-.3,5.13,5.13,0,0,1-3.29-.69,5.59,5.59,0,0,1-2.59-3.37,6.18,6.18,0,0,1,.55-4.61,6.79,6.79,0,0,1,4-3.25,7.67,7.67,0,0,1,5.74.49,8.65,8.65,0,0,1,4.29,4.93,9.92,9.92,0,0,1-.4,7.49,11.56,11.56,0,0,1-6.4,5.93,13.54,13.54,0,0,1-10.22-.23,16.24,16.24,0,0,1-7.68-22.86c4.13-7,13.73-10.19,21.84-7.39,7.23,2.49,12.88,9.12,14.74,17.28,1.55,6.76.51,14.53-2.93,21.87-5.3,11.32-15,19.52-21.86,24.71-3.16,2.39-6.44,4.68-9.61,6.9A178,178,0,0,0,2567,217a65.17,65.17,0,0,0-16.71,21.75,48.32,48.32,0,0,0-3.22,9.76A3.53,3.53,0,0,1,2543.56,251.28Z"/><path class="cls-1" d="M473.64,251.28a3.53,3.53,0,0,1-3.46-2.8,48.32,48.32,0,0,0-3.22-9.76A65.08,65.08,0,0,0,450.24,217a176.39,176.39,0,0,0-15.57-11.76c-3.17-2.22-6.45-4.51-9.61-6.9-6.85-5.19-16.57-13.39-21.86-24.71-3.44-7.34-4.48-15.11-2.93-21.87,1.86-8.16,7.51-14.79,14.74-17.28,8.11-2.8,17.7.44,21.84,7.39a16.24,16.24,0,0,1-7.68,22.86,13.57,13.57,0,0,1-10.23.23,11.58,11.58,0,0,1-6.39-5.93,9.92,9.92,0,0,1-.4-7.49,8.65,8.65,0,0,1,4.29-4.93,7.65,7.65,0,0,1,5.73-.49,6.84,6.84,0,0,1,4,3.26,6.16,6.16,0,0,1,.53,4.61,5.6,5.6,0,0,1-2.58,3.37,5.21,5.21,0,0,1-3.29.68,6.09,6.09,0,0,0,.63.3,6.57,6.57,0,0,0,4.91-.11,9.16,9.16,0,0,0,4.41-12.74c-2.44-4.1-8.48-6-13.46-4.32s-8.84,6.45-10.14,12.17c-1.2,5.23-.33,11.37,2.43,17.29,3.53,7.53,9.8,14.54,19.73,22.07,3.06,2.31,6.28,4.56,9.4,6.74a183.75,183.75,0,0,1,16.18,12.24c8.34,7.32,14.56,15.45,18.49,24.15A54.55,54.55,0,0,1,477.1,247a3.54,3.54,0,0,1-2.72,4.2A3.78,3.78,0,0,1,473.64,251.28Z"/><path class="cls-1" d="M1347.54,63.24H491.44a3.54,3.54,0,0,1,0-7.08h856.1a3.54,3.54,0,0,1,0,7.08Z"/><path class="cls-1" d="M2525.76,63.24H1674.68a3.54,3.54,0,1,1,0-7.08h851.08a3.54,3.54,0,0,1,0,7.08Z"/><path class="cls-1" d="M1508.65,193.06q-22.31,0-44.71.45c-158.76,3.26-302.58,24.1-438.35,63.42C910.23,290.35,796.76,337.55,662,408.45a160.45,160.45,0,0,1-56,17.45,178.82,178.82,0,0,1-21,1.27,152.86,152.86,0,0,1-38.53-4.79c0,4.47,11.68,61.13,11.68,152.85q0,15.63-.47,31.24c56.18,26.09,114.08,51.79,155.56,98.32,12.31-45.51,56-75.48,96.66-96.21,201-102.52,385.34-163.27,654.1-169.28q22.41-.49,44.71-.47t44.72.47c268.75,6,453.13,66.76,654.09,169.28,40.64,20.73,84.36,50.7,96.66,96.21,41.48-46.53,99.38-72.23,155.57-98.32q-.46-15.62-.47-31.24c0-91.72,11.67-148.38,11.67-152.85a152.73,152.73,0,0,1-38.52,4.79,178.82,178.82,0,0,1-21-1.27,160.57,160.57,0,0,1-56-17.45c-134.77-70.9-248.23-118.1-363.59-151.52-135.78-39.32-279.6-60.16-438.35-63.42Q1531,193,1508.65,193.06Z"/><path class="cls-1" d="M713.18,708.33a3.55,3.55,0,0,1-2.64-1.18c-39.32-44.11-94.37-69.64-147.62-94.32l-6.79-3.15a3.55,3.55,0,0,1-2-3.32c.31-10.35.47-20.82.47-31.13,0-74.87-7.72-125.72-10.63-144.87a75.32,75.32,0,0,1-1-8,3.5,3.5,0,0,1,1.37-2.79,3.55,3.55,0,0,1,3-.63c18.07,4.69,37.79,5.85,58.27,3.42a157.16,157.16,0,0,0,54.78-17.06c135.35-71.21,247.7-118,364.25-151.79C1161,214,1304.67,193.24,1463.87,190c14.89-.31,29.89-.48,44.78-.45,14.73,0,29.89.14,44.79.45,159.2,3.27,302.88,24.06,439.26,63.56,116.56,33.76,228.9,80.58,364.26,151.79a157,157,0,0,0,54.78,17.06c20.47,2.43,40.19,1.27,58.26-3.42a3.54,3.54,0,0,1,4.43,3.42,77,77,0,0,1-1,8c-2.9,19.15-10.62,70-10.62,144.87,0,10.31.15,20.78.47,31.13a3.55,3.55,0,0,1-2.05,3.32l-6.78,3.14c-53.25,24.69-108.31,50.22-147.63,94.33a3.54,3.54,0,0,1-6.06-1.43c-9.62-35.59-40.65-66.34-94.85-94C2016,514.87,1832.32,449.08,1553.29,442.84c-14.81-.33-29.81-.5-44.63-.47s-29.83.14-44.64.47c-279,6.24-462.68,72-652.57,168.89-54.21,27.65-85.23,58.4-94.85,94a3.55,3.55,0,0,1-2.6,2.52A3.75,3.75,0,0,1,713.18,708.33Zm797.45-273c14.21,0,28.61.16,42.81.47,280.38,6.27,464.88,72.36,655.63,169.67,53.07,27.07,84.76,57.35,96.63,92.4,39.92-42.38,93.68-67.3,145.72-91.43l4.67-2.16c-.28-9.66-.41-19.4-.41-29,0-75.4,7.78-126.64,10.71-145.93.12-.79.23-1.56.34-2.27a166.91,166.91,0,0,1-55.83,2.38,164,164,0,0,1-57.24-17.83c-134.91-71-246.84-117.63-362.93-151.25-135.78-39.33-278.87-60-437.44-63.28-14.84-.31-29.82-.51-44.63-.45h0c-14.71,0-29.79.14-44.63.45-158.58,3.25-301.67,23.95-437.45,63.28C910.49,294,798.56,340.6,663.64,411.58a164,164,0,0,1-57.24,17.83A166.84,166.84,0,0,1,550.58,427c.1.71.22,1.48.34,2.27,2.93,19.29,10.71,70.53,10.71,145.93,0,9.61-.14,19.35-.41,29l4.68,2.17c52,24.12,105.79,49.05,145.71,91.42,11.87-35.05,43.56-65.33,96.63-92.4C999,508.12,1183.49,442,1463.86,435.76c14.87-.33,30-.49,44.8-.47Z"/><path class="cls-2" d="M1506.65,406.39c-14.4,0-29,.16-43.43.48-285.86,6.39-473.83,73.71-668.12,172.82-41.71,21.28-72,45-91.42,71.67-34.57-27.71-74.07-47.15-113.21-65.4q.06-5.38.06-10.73A1040,1040,0,0,0,584.1,459.6h.84a212.37,212.37,0,0,0,24.87-1.49,193.09,193.09,0,0,0,67.29-21c133.12-70,243.38-116,357.51-149.06,133.33-38.62,274-58.95,430-62.15,14.18-.3,28.55-.44,42.71-.44H1510c14.16,0,28.52.14,42.71.44,156,3.2,296.67,23.53,430,62.15,114.14,33.06,224.4,79,357.52,149.06a193,193,0,0,0,67.29,21,212.37,212.37,0,0,0,24.87,1.49h.84a1040,1040,0,0,0-6.43,115.63q0,5.34.06,10.73c-39.15,18.25-78.65,37.69-113.21,65.4-19.43-26.7-49.71-50.39-91.43-71.67C2027.92,480.58,1840,413.26,1554.09,406.87c-14.43-.32-29-.48-43.43-.48Z"/><path class="cls-3" d="M2313.63,657.85a6.22,6.22,0,0,1-.86-.06,6.51,6.51,0,0,1-4.38-2.61c-18.88-25.95-48-48.76-89.13-69.72-193.5-98.7-380.69-165.74-665.32-172.1-14.34-.32-28.91-.49-43.28-.49h-4c-14.37,0-28.94.17-43.29.49-284.63,6.36-471.82,73.4-665.31,172.1-41.1,21-70.25,43.77-89.13,69.72a6.48,6.48,0,0,1-9.3,1.24c-34.12-27.36-74-46.91-111.89-64.58a6.48,6.48,0,0,1-3.74-6c0-3.56,0-7.12,0-10.66a1035.68,1035.68,0,0,0-6.39-114.91,6.48,6.48,0,0,1,6.45-7.2h.84a206.19,206.19,0,0,0,24.11-1.45,186.48,186.48,0,0,0,65-20.26C807.6,361.17,918.24,315,1032.81,281.86c133.88-38.78,275.08-59.19,431.66-62.41,14.21-.29,28.62-.44,42.84-.44H1510c14.22,0,28.64.15,42.84.44,156.59,3.22,297.79,23.63,431.67,62.41,114.57,33.18,225.21,79.31,358.73,149.55a186.48,186.48,0,0,0,65,20.26,206.19,206.19,0,0,0,24.11,1.45h.83a6.48,6.48,0,0,1,6.45,7.2,1037.83,1037.83,0,0,0-6.38,114.91c0,3.54,0,7.1.05,10.66a6.49,6.49,0,0,1-3.74,6c-37.91,17.67-77.77,37.22-111.89,64.58A6.48,6.48,0,0,1,2313.63,657.85Zm-807-258h4c14.47,0,29.13.17,43.58.49,287.08,6.42,475.83,74,670.91,173.52,40.16,20.48,69.57,42.87,89.66,68.28,32.84-25.21,69.93-43.68,105.51-60.34,0-2.21,0-4.42,0-6.62A1050.23,1050.23,0,0,1,2426,466c-6.35-.2-12.81-.68-19.26-1.44a199.5,199.5,0,0,1-69.54-21.66c-132.72-69.82-242.6-115.64-356.3-148.57-132.77-38.46-272.88-58.71-428.32-61.9-14.12-.29-28.45-.44-42.58-.44h-2.68c-14.13,0-28.45.15-42.57.44-155.44,3.19-295.55,23.44-428.32,61.9-113.7,32.93-223.59,78.75-356.31,148.57a199.37,199.37,0,0,1-69.54,21.66c-6.45.76-12.9,1.24-19.25,1.44A1053.29,1053.29,0,0,1,597,575.23q0,3.3,0,6.62c35.58,16.66,72.67,35.13,105.5,60.34,20.09-25.41,49.5-47.79,89.67-68.28C987.24,474.4,1176,406.81,1463.07,400.39,1477.52,400.07,1492.18,399.9,1506.65,399.9Z"/><path class="cls-1" d="M782.93,758.3a27.5,27.5,0,0,1-17.15-6,33.51,33.51,0,0,1-12.45-22,36.12,36.12,0,0,1-.3-4.72c0-11.29,4.82-24.37,12.56-34.14,12.57-15.88,33.17-31,63-46.18,233-118.83,422.94-165.33,676.23-165.33h7.76c253.3,0,443.23,46.49,676.21,165.33,29.79,15.2,50.39,30.3,63,46.18,7.75,9.77,12.56,22.85,12.56,34.14a36.31,36.31,0,0,1-.3,4.71,33.51,33.51,0,0,1-12.45,22,27.56,27.56,0,0,1-19.92,5.86,22.64,22.64,0,0,1-15.17-8,18.84,18.84,0,0,1-4.45-13.53,15.82,15.82,0,0,1,5.21-10.72,13.54,13.54,0,0,1,9.47-3.45,11.36,11.36,0,0,1,7.83,3.51,9.76,9.76,0,0,1,2.75,6.88,8.59,8.59,0,0,1-8.37,8.55,7.48,7.48,0,0,1-5.34-2,6.72,6.72,0,0,1-2.17-4.61,6,6,0,0,1,1.4-4.27,6.33,6.33,0,0,0-.83.64,8.77,8.77,0,0,0-2.89,5.95,11.81,11.81,0,0,0,2.79,8.48,15.71,15.71,0,0,0,10.47,5.5,20.52,20.52,0,0,0,14.82-4.36,26.5,26.5,0,0,0,9.83-17.39,29.36,29.36,0,0,0,.24-3.8c0-9.62-4.33-21.29-11-29.75-11.93-15.06-31.77-29.54-60.63-44.26C1953.66,533.28,1764.59,487,1512.52,487h-7.72c-252.11,0-441.14,46.27-673,164.56-28.87,14.73-48.7,29.2-60.63,44.26-6.7,8.46-11,20.13-11,29.75a29,29,0,0,0,.24,3.8,26.47,26.47,0,0,0,9.83,17.39A20.5,20.5,0,0,0,785,751.12a15.71,15.71,0,0,0,10.47-5.5,11.85,11.85,0,0,0,2.79-8.48,8.77,8.77,0,0,0-2.89-5.95,5.5,5.5,0,0,0-.83-.63,6.11,6.11,0,0,1,1.4,4.27,6.69,6.69,0,0,1-2.18,4.6,7.61,7.61,0,0,1-5.34,2,8.61,8.61,0,0,1-5.92-2.58,8.52,8.52,0,0,1-2.44-6A9.79,9.79,0,0,1,782.8,726a11.39,11.39,0,0,1,7.84-3.51,13.46,13.46,0,0,1,9.47,3.44,15.82,15.82,0,0,1,5.21,10.73,18.88,18.88,0,0,1-4.45,13.53,22.64,22.64,0,0,1-15.18,8C784.77,758.25,783.85,758.3,782.93,758.3Zm1442.14-24.56h0Z"/><path class="cls-1" d="M592.1,387.1a56.67,56.67,0,0,1-12.55-1.21,37.13,37.13,0,0,1-23-16,30.45,30.45,0,0,1-4.39-22.55,25,25,0,0,1,10.33-15.83A20.7,20.7,0,0,1,577.75,328a17.3,17.3,0,0,1,11.15,6.78,14.59,14.59,0,0,1,2.77,10.63,12.32,12.32,0,0,1-4.59,8.1,10.6,10.6,0,0,1-7.65,2.25,9.18,9.18,0,0,1-6.13-3.22,8,8,0,0,1-1.89-5.76,7.14,7.14,0,0,1,5-6.35,6.4,6.4,0,0,1,4.82.38,5.76,5.76,0,0,1,3.2,4.66,6.61,6.61,0,0,0,.22-1,7.46,7.46,0,0,0-1.43-5.48,10.24,10.24,0,0,0-6.61-4,13.65,13.65,0,0,0-10.08,2.29,18,18,0,0,0-7.42,11.38A23.35,23.35,0,0,0,562.48,366a30.06,30.06,0,0,0,18.64,13,49.89,49.89,0,0,0,11,1c15.14,0,40.69-10.74,50-15.64,137-71.92,251.14-119.35,370-153.79,132-38.24,270-59.35,421.87-64.53,37.06-1.27,68.36-28.65,68.36-59.8,0-23.46-13.71-48.71-43.8-48.71-20.71,0-42.13,14.05-42.13,37.57,0,18.87,14.49,34.8,31.63,34.8,14.83,0,27.35-12,27.35-26.32,0-12.77-9.33-17.4-15.6-17.4-4.59,0-8.79,2.25-10.46,5.6a7.88,7.88,0,0,0-.46,6,5.65,5.65,0,0,0,1.86,2.71,5.78,5.78,0,0,1-.53-1.53,5.42,5.42,0,0,1,.84-4,5.91,5.91,0,0,1,3.68-2.51,6.55,6.55,0,0,1,4.85.84,7.26,7.26,0,0,1,3.23,4.43,8.23,8.23,0,0,1-.87,6.14,9.35,9.35,0,0,1-5.58,4.33,10.85,10.85,0,0,1-8.13-.88,12.72,12.72,0,0,1-6.1-7.36,14.94,14.94,0,0,1,.87-11.25c2.89-5.78,9.48-9.52,16.8-9.52,11,0,22.68,8.58,22.68,24.48,0,18.11-15.77,33.4-34.43,33.4-21,0-38.71-19.18-38.71-41.88,0-27.95,25-44.65,49.21-44.65,30,0,50.88,22.94,50.88,55.79,0,34.85-34.44,65.48-75.2,66.87-151.26,5.16-288.69,26.18-420.14,64.25C895.7,251.69,782,299,645.41,370.65,635.19,376,608.71,387.1,592.1,387.1Z"/><path class="cls-1" d="M2425.21,387.1c-16.61,0-43.09-11.08-53.31-16.45-136.58-71.69-250.3-119-368.73-153.27-131.45-38.07-268.88-59.09-420.14-64.25-40.77-1.39-75.2-32-75.2-66.87,0-32.85,20.92-55.79,50.88-55.79,24.19,0,49.2,16.7,49.2,44.65,0,22.7-17.72,41.88-38.7,41.88-18.67,0-34.43-15.29-34.43-33.4,0-15.9,11.68-24.48,22.67-24.48,7.32,0,13.92,3.73,16.8,9.52a14.9,14.9,0,0,1,.88,11.25,12.69,12.69,0,0,1-6.1,7.36,10.85,10.85,0,0,1-8.13.88,9.35,9.35,0,0,1-5.59-4.34,8.2,8.2,0,0,1-.86-6.13,7.26,7.26,0,0,1,3.23-4.43,6.53,6.53,0,0,1,4.84-.84,5.92,5.92,0,0,1,3.69,2.51,5.43,5.43,0,0,1,.83,4,5.64,5.64,0,0,1-.52,1.53,5.6,5.6,0,0,0,1.86-2.71,7.88,7.88,0,0,0-.46-6c-1.67-3.35-5.88-5.6-10.47-5.6-6.27,0-15.59,4.63-15.59,17.4,0,14.27,12.52,26.32,27.35,26.32,17.14,0,31.63-15.93,31.63-34.8,0-23.52-21.42-37.57-42.13-37.57-30.1,0-43.81,25.25-43.81,48.71,0,31.15,31.31,58.53,68.37,59.8,151.85,5.18,289.85,26.29,421.87,64.53,118.91,34.44,233,81.87,370,153.79,9.33,4.9,34.88,15.64,50,15.64a50,50,0,0,0,11-1,30.11,30.11,0,0,0,18.64-13,23.39,23.39,0,0,0,3.37-17.32,18,18,0,0,0-7.42-11.38A13.66,13.66,0,0,0,2440.7,335a10.26,10.26,0,0,0-6.62,4,7.5,7.5,0,0,0-1.42,5.48,5.25,5.25,0,0,0,.22,1,6,6,0,0,1,.29-1.36,5.86,5.86,0,0,1,2.9-3.29,6.43,6.43,0,0,1,4.83-.38,7.11,7.11,0,0,1,4.15,3.42,7.25,7.25,0,0,1,.85,2.92,8,8,0,0,1-1.9,5.77,9.14,9.14,0,0,1-6.12,3.22,10.59,10.59,0,0,1-7.65-2.25,12.32,12.32,0,0,1-4.59-8.1,14.58,14.58,0,0,1,2.76-10.63,17.35,17.35,0,0,1,11.16-6.78,20.69,20.69,0,0,1,15.26,3.47,25,25,0,0,1,10.32,15.83,30.44,30.44,0,0,1-4.38,22.55,37.13,37.13,0,0,1-23,16A56.73,56.73,0,0,1,2425.21,387.1Z"/><path class="cls-1" d="M1325.48,137.61a24.46,24.46,0,0,1-10.92-2.4,19.7,19.7,0,0,1-9.84-11.16,16.5,16.5,0,0,1,.6-12.42,13.88,13.88,0,0,1,7.64-7.17,11.82,11.82,0,0,1,8.92.15,10.14,10.14,0,0,1,5.41,5.42,8.82,8.82,0,0,1,.1,6.66,7.76,7.76,0,0,1-4,4.27,6.86,6.86,0,0,1-5.21.24,6.18,6.18,0,0,1-2-1.18,6.25,6.25,0,0,1-2.14-4.2,5.59,5.59,0,0,1,2.14-4.95,6.36,6.36,0,0,0-.62.19,6.88,6.88,0,0,0-3.77,3.54,9.47,9.47,0,0,0-.34,7.11,12.68,12.68,0,0,0,6.33,7.18,17.49,17.49,0,0,0,7.75,1.64c23.28,0,42.53-24.68,61.15-48.55,17.24-22.1,35.06-44.95,57-49.42a3.54,3.54,0,1,1,1.41,6.93c-19.39,3.95-36.4,25.76-52.85,46.85C1372.55,111.54,1352.22,137.61,1325.48,137.61Z"/><path class="cls-1" d="M1691.83,137.61c-26.74,0-47.07-26.07-66.73-51.28-16.45-21.08-33.46-42.89-52.86-46.84a3.54,3.54,0,1,1,1.41-6.93c22,4.47,39.79,27.32,57,49.42,18.61,23.87,37.86,48.55,61.15,48.55a17.52,17.52,0,0,0,7.75-1.64,12.66,12.66,0,0,0,6.32-7.18,9.42,9.42,0,0,0-.34-7.11,6.82,6.82,0,0,0-3.77-3.54,6.17,6.17,0,0,0-.61-.19,5.38,5.38,0,0,1,.87.85,5.71,5.71,0,0,1,1.26,4.11,6.26,6.26,0,0,1-4.16,5.37,6.89,6.89,0,0,1-5.22-.24,7.74,7.74,0,0,1-4-4.27,8.82,8.82,0,0,1,.1-6.66,10.14,10.14,0,0,1,5.41-5.42,11.8,11.8,0,0,1,8.91-.15,13.86,13.86,0,0,1,7.65,7.17,16.49,16.49,0,0,1,.59,12.42,19.68,19.68,0,0,1-9.83,11.16A24.49,24.49,0,0,1,1691.83,137.61Z"/><path class="cls-1" d="M2520.68,645a236.58,236.58,0,0,0,51-14.24c8.89,25.86,24.45,48.74,41.91,70.06-2.47-.68-4.95-1.35-7.43-2,1.65,2,3.31,3.91,5,5.85-26.77-6.53-54.12-10.68-81.29-7.53A236.86,236.86,0,0,0,2520.68,645Z"/><path class="cls-1" d="M2614.53,704.05a28.79,28.79,0,0,0-.93-3.28c8.42-.71,15.43-4.88,22.63-8.67,27.67,33.46,60.61,62.35,96.51,86.22q-6.25-4-12.64-7.78,6.18,4.11,12.48,8c-37-22.07-77.32-39.29-119.45-49.78.31-8.13,1-16.26-2-24.16A30.19,30.19,0,0,0,2614.53,704.05Z"/><path class="cls-1" d="M2372.94,830.88a39.42,39.42,0,0,1-9.56-1.19,47.63,47.63,0,0,1-29-21.21,58.67,58.67,0,0,1-7.48-43.64c4.92-22.54,30.49-68.42,95.09-97.33,30.75-13.77,63.84-22.82,93.74-25.69-10.33-28.21-16.46-62-17.34-95.64-1.83-70.75,28.5-113.63,46.7-127.81a58.72,58.72,0,0,1,42.59-12.11,47.61,47.61,0,0,1,31.66,17,38.82,38.82,0,0,1,8.89,27.91,31.75,31.75,0,0,1-10.67,21.45,26.15,26.15,0,0,1-18.58,6.56,21.6,21.6,0,0,1-14.81-6.8,18,18,0,0,1-4.91-12.64,15.14,15.14,0,0,1,4.42-10.49,12.93,12.93,0,0,1,3.56-2.52,12.79,12.79,0,0,1,9.62-.58,10.9,10.9,0,0,1,6.26,5.36,9.68,9.68,0,0,1,1.06,4.54,9.45,9.45,0,0,1-2.8,6.55,8.23,8.23,0,0,1-5.75,2.41h-.1a7.29,7.29,0,0,1-5-2,6.52,6.52,0,0,1-2-4.5,6,6,0,0,1,2.87-5.38,5.49,5.49,0,0,1,1.32-.57,5.66,5.66,0,0,0-2.34.56,5.6,5.6,0,0,0-1.6,1.13,8,8,0,0,0-2.35,5.59,10.92,10.92,0,0,0,3,7.69,14.55,14.55,0,0,0,10,4.58,19,19,0,0,0,13.57-4.79,24.67,24.67,0,0,0,8.3-16.7,31.76,31.76,0,0,0-7.27-22.84,40.58,40.58,0,0,0-27-14.49A51.61,51.61,0,0,0,2549.42,424c-17.15,13.37-45.73,54.12-44,122.05.87,33.57,7.07,67.17,17.5,95a233,233,0,0,0,47.4-13.54,3.5,3.5,0,0,1,2.8,0,3.54,3.54,0,0,1,1.89,2.07c7.33,21.35,20.09,42.82,40.07,67.47,6.11-.93,11.55-3.84,17.29-6.9l2.18-1.16a3.55,3.55,0,0,1,4.38.87c26.67,32.25,58.88,61,95.74,85.53q4.1,2.75,8.23,5.36a3.54,3.54,0,1,1-3.77,6c-2.77-1.73-5.56-3.44-8.38-5.1-38-22.67-77.91-39.28-118.51-49.4a3.53,3.53,0,0,1-2.68-3.57l.1-2.46c.29-6.5.55-12.67-1.24-18.58-30.86-7.37-55.74-9.6-78.16-7a3.54,3.54,0,0,1-3.94-3.31,233.8,233.8,0,0,0-8.26-48.6c-29.6,2.61-62.58,11.53-93.23,25.25-62,27.77-86.42,71.14-91.07,92.4a51.61,51.61,0,0,0,6.59,38.39,40.53,40.53,0,0,0,24.72,18.07,31.74,31.74,0,0,0,23.75-3.31,24.73,24.73,0,0,0,11.47-14.7,19.08,19.08,0,0,0-1.54-14.3,14.57,14.57,0,0,0-8.44-7,10.93,10.93,0,0,0-8.23.62,8,8,0,0,0-4,4.55,5.77,5.77,0,0,0-.34,1.93,5.91,5.91,0,0,0,.62,2.59,5.48,5.48,0,0,1,.28-3.41,6,6,0,0,1,3.17-3.19,6.6,6.6,0,0,1,4.94-.09,7.34,7.34,0,0,1,4,3.77,8.25,8.25,0,0,1,.31,6.23,9.44,9.44,0,0,1-4.71,5.35,9.53,9.53,0,0,1-4.54,1,10.92,10.92,0,0,1-7.54-3.33,12.8,12.8,0,0,1-2.89-13.22,15,15,0,0,1,7.54-8.53,18,18,0,0,1,13.53-1A21.54,21.54,0,0,1,2405,787.16a26.1,26.1,0,0,1,2.11,19.59,31.72,31.72,0,0,1-14.73,18.89A38.86,38.86,0,0,1,2372.94,830.88Zm243.84-104.82a434.61,434.61,0,0,1,76.72,27.73,434.87,434.87,0,0,1-58.15-57.22c-6.3,3.36-12.82,6.78-20.57,7.64C2617.35,711.57,2617.09,718.93,2616.78,726.06Zm-67.92-33.57c17.79,0,37.3,2.6,59.89,7.92-19-23.54-31.51-44.37-39.16-65a242,242,0,0,1-44.41,12.42,242.12,242.12,0,0,1,8,45.42Q2540.81,692.5,2548.86,692.49Zm43.71-233.94Z"/><path class="cls-1" d="M2741,787.26a3.48,3.48,0,0,1-1.81-.5q-4.28-2.55-8.52-5.18c-4.2-2.62-8.43-5.34-12.57-8.1a3.54,3.54,0,0,1,3.77-6c4.26,2.54,8.54,5.17,12.73,7.84q4.21,2.7,8.36,5.44a3.54,3.54,0,0,1-2,6.49Z"/><path class="cls-1" d="M2611.17,708.17a3.52,3.52,0,0,1-2.67-1.22q-2.55-2.93-5-5.89a3.53,3.53,0,0,1,3.59-5.7q3.75,1,7.49,2a3.54,3.54,0,0,1,2.4,2.25,31.69,31.69,0,0,1,1,3.66,3.53,3.53,0,0,1-.45,2.67,3.58,3.58,0,0,1-2.21,1.57,35.36,35.36,0,0,1-3.75.63Z"/><path class="cls-1" d="M496.63,645a236.42,236.42,0,0,1-51-14.24c-8.9,25.86-24.46,48.74-41.91,70.06,2.47-.68,5-1.35,7.43-2-1.65,2-3.32,3.91-5,5.85,26.77-6.53,54.12-10.68,81.29-7.53A236.86,236.86,0,0,1,496.63,645Z"/><path class="cls-1" d="M402.77,704.05a31.07,31.07,0,0,1,.94-3.28c-8.42-.71-15.44-4.88-22.64-8.67-27.66,33.46-60.6,62.35-96.5,86.22q6.26-4,12.64-7.78-6.18,4.11-12.48,8c37-22.07,77.32-39.29,119.45-49.78-.31-8.13-1-16.26,2-24.16A30.78,30.78,0,0,1,402.77,704.05Z"/><path class="cls-1" d="M644.37,830.88a38.86,38.86,0,0,1-19.45-5.24,31.8,31.8,0,0,1-14.74-18.89,26.19,26.19,0,0,1,2.11-19.59,21.59,21.59,0,0,1,12.53-10.41,18,18,0,0,1,13.53,1,15,15,0,0,1,7.54,8.52,12.59,12.59,0,0,1,.74,4.3,12.71,12.71,0,0,1-3.63,8.92,10.94,10.94,0,0,1-7.54,3.33,9.2,9.2,0,0,1-4.55-1,9.46,9.46,0,0,1-4.7-5.35,8.32,8.32,0,0,1,.3-6.22,7.32,7.32,0,0,1,4-3.78,6.62,6.62,0,0,1,5,.09,6,6,0,0,1,3.17,3.19,5.39,5.39,0,0,1,.27,3.41,5.76,5.76,0,0,0,.29-4.52,8,8,0,0,0-4-4.54,10.89,10.89,0,0,0-8.23-.63,14.54,14.54,0,0,0-8.44,7,19.08,19.08,0,0,0-1.54,14.3,24.69,24.69,0,0,0,11.47,14.7,31.72,31.72,0,0,0,23.74,3.31,40.59,40.59,0,0,0,24.73-18.07,51.56,51.56,0,0,0,6.58-38.39c-4.64-21.26-29-64.63-91.06-92.39-30.66-13.73-63.64-22.65-93.23-25.26a232.6,232.6,0,0,0-8.26,48.6,3.55,3.55,0,0,1-1.25,2.5,3.5,3.5,0,0,1-2.69.81c-22.42-2.61-47.3-.38-78.16,7-1.8,5.9-1.53,12.07-1.25,18.56l.11,2.48a3.54,3.54,0,0,1-2.69,3.57c-40.6,10.12-80.47,26.73-118.49,49.39q-4.25,2.5-8.4,5.11a3.54,3.54,0,0,1-3.77-6q4.14-2.61,8.23-5.35c36.87-24.51,69.08-53.29,95.75-85.54a3.53,3.53,0,0,1,4.37-.87l2.2,1.16c5.73,3.06,11.17,6,17.27,6.9,20-24.64,32.74-46.12,40.08-67.47a3.54,3.54,0,0,1,1.89-2.07,3.5,3.5,0,0,1,2.8,0A232.64,232.64,0,0,0,494.36,641c10.43-27.8,16.63-61.4,17.5-95,1.76-67.93-26.82-108.68-44-122a51.61,51.61,0,0,0-37.47-10.65,40.58,40.58,0,0,0-27,14.49,31.82,31.82,0,0,0-7.28,22.85,24.73,24.73,0,0,0,8.31,16.69A19.12,19.12,0,0,0,418,472.12a14.53,14.53,0,0,0,10-4.58,10.93,10.93,0,0,0,3-7.69,8,8,0,0,0-2.36-5.59,5.46,5.46,0,0,0-1.6-1.13,5.62,5.62,0,0,0-2.33-.56,5.26,5.26,0,0,1,1.31.57,6,6,0,0,1,2.88,5.37,6.56,6.56,0,0,1-2.06,4.51,6.85,6.85,0,0,1-5.14,2,8.22,8.22,0,0,1-5.74-2.41,9.46,9.46,0,0,1-2.8-6.55,9.57,9.57,0,0,1,1.06-4.54,10.91,10.91,0,0,1,6.26-5.36,12.79,12.79,0,0,1,13.17,3.1,15.08,15.08,0,0,1,4.43,10.49,18,18,0,0,1-4.92,12.64,21.58,21.58,0,0,1-14.8,6.8,26.08,26.08,0,0,1-18.58-6.56,31.75,31.75,0,0,1-10.67-21.45A38.81,38.81,0,0,1,398,423.27a47.68,47.68,0,0,1,31.67-17,58.66,58.66,0,0,1,42.58,12.11c18.21,14.18,48.53,57.06,46.71,127.81-.88,33.68-7,67.44-17.35,95.64,29.91,2.87,63,11.92,93.75,25.69,64.59,28.91,90.17,74.79,95.09,97.33A58.72,58.72,0,0,1,683,808.48a47.67,47.67,0,0,1-29,21.21A39.42,39.42,0,0,1,644.37,830.88ZM382,696.57a434.87,434.87,0,0,1-58.15,57.22,434.42,434.42,0,0,1,76.73-27.73c-.31-7.13-.58-14.49,2-21.85C394.77,703.35,388.25,699.93,382,696.57Zm65.77-61.21c-7.66,20.69-20.21,41.52-39.16,65,29.41-6.93,53.62-9.24,75.58-7.21a242.12,242.12,0,0,1,8-45.42A242,242,0,0,1,447.72,635.36Zm-23-176.83h0Z"/><path class="cls-1" d="M276.27,787.26a3.54,3.54,0,0,1-2-6.49q4.15-2.74,8.35-5.43c4.19-2.68,8.48-5.31,12.74-7.85a3.54,3.54,0,0,1,3.77,6c-4.11,2.74-8.34,5.46-12.57,8.1-2.84,1.75-5.67,3.48-8.52,5.18A3.54,3.54,0,0,1,276.27,787.26Z"/><path class="cls-1" d="M406.14,708.17a2.69,2.69,0,0,1-.4,0,35.36,35.36,0,0,1-3.75-.63,3.55,3.55,0,0,1-2.67-4.23,35.69,35.69,0,0,1,1-3.67,3.53,3.53,0,0,1,2.41-2.25q3.74-1,7.49-2a3.54,3.54,0,0,1,3.59,5.7q-2.49,3-5,5.89A3.54,3.54,0,0,1,406.14,708.17Z"/><path class="cls-1" d="M2147.56,729.69a3.54,3.54,0,0,1-3.54-3.54V712.41a3.54,3.54,0,1,1,7.07,0v13.74A3.54,3.54,0,0,1,2147.56,729.69Z"/><path class="cls-1" d="M2123,729.69a3.55,3.55,0,0,1-3.54-3.54V701.22a3.54,3.54,0,1,1,7.08,0v24.93A3.54,3.54,0,0,1,2123,729.69Z"/><path class="cls-1" d="M2098.41,729.69a3.54,3.54,0,0,1-3.54-3.54V689a3.54,3.54,0,0,1,7.08,0v37.15A3.55,3.55,0,0,1,2098.41,729.69Z"/><path class="cls-1" d="M2073.84,729.69a3.54,3.54,0,0,1-3.54-3.54V678.82a3.54,3.54,0,1,1,7.07,0v47.33A3.54,3.54,0,0,1,2073.84,729.69Z"/><path class="cls-1" d="M2049.26,729.69a3.55,3.55,0,0,1-3.54-3.54v-57.5a3.54,3.54,0,1,1,7.08,0v57.5A3.54,3.54,0,0,1,2049.26,729.69Z"/><path class="cls-1" d="M2024.69,729.69a3.55,3.55,0,0,1-3.54-3.54V658.47a3.54,3.54,0,0,1,7.08,0v67.68A3.55,3.55,0,0,1,2024.69,729.69Z"/><path class="cls-1" d="M2000.12,729.69a3.54,3.54,0,0,1-3.54-3.54V650.33a3.54,3.54,0,0,1,7.08,0v75.82A3.55,3.55,0,0,1,2000.12,729.69Z"/><path class="cls-1" d="M1975.54,729.69a3.54,3.54,0,0,1-3.53-3.54v-85a3.54,3.54,0,1,1,7.07,0v85A3.54,3.54,0,0,1,1975.54,729.69Z"/><path class="cls-1" d="M1951,729.69a3.55,3.55,0,0,1-3.54-3.54V633a3.54,3.54,0,1,1,7.08,0v93.13A3.55,3.55,0,0,1,1951,729.69Z"/><path class="cls-1" d="M1926.4,729.69a3.54,3.54,0,0,1-3.54-3.54V625.9a3.54,3.54,0,1,1,7.07,0V726.15A3.54,3.54,0,0,1,1926.4,729.69Z"/><path class="cls-1" d="M1901.82,729.69a3.55,3.55,0,0,1-3.54-3.54V619.34a3.54,3.54,0,1,1,7.08,0V726.15A3.54,3.54,0,0,1,1901.82,729.69Z"/><path class="cls-1" d="M1877.25,729.69a3.55,3.55,0,0,1-3.54-3.54V611.65a3.54,3.54,0,0,1,7.08,0v114.5A3.54,3.54,0,0,1,1877.25,729.69Z"/><path class="cls-1" d="M1852.68,729.69a3.54,3.54,0,0,1-3.54-3.54V605.54a3.54,3.54,0,0,1,7.08,0V726.15A3.55,3.55,0,0,1,1852.68,729.69Z"/><path class="cls-1" d="M1828.1,729.69a3.54,3.54,0,0,1-3.53-3.54V599.43a3.54,3.54,0,0,1,7.07,0V726.15A3.54,3.54,0,0,1,1828.1,729.69Z"/><path class="cls-1" d="M1803.53,729.69a3.55,3.55,0,0,1-3.54-3.54V594.35a3.54,3.54,0,1,1,7.08,0v131.8A3.55,3.55,0,0,1,1803.53,729.69Z"/><path class="cls-1" d="M1779,729.69a3.54,3.54,0,0,1-3.54-3.54V589.26a3.54,3.54,0,0,1,7.08,0V726.15A3.55,3.55,0,0,1,1779,729.69Z"/><path class="cls-1" d="M1754.39,729.69a3.54,3.54,0,0,1-3.54-3.54v-141a3.54,3.54,0,1,1,7.07,0v141A3.54,3.54,0,0,1,1754.39,729.69Z"/><path class="cls-1" d="M1729.81,729.69a3.55,3.55,0,0,1-3.54-3.54v-145a3.54,3.54,0,0,1,7.08,0v145A3.54,3.54,0,0,1,1729.81,729.69Z"/><path class="cls-1" d="M1705.24,729.69a3.55,3.55,0,0,1-3.54-3.54V577a3.54,3.54,0,1,1,7.08,0V726.15A3.55,3.55,0,0,1,1705.24,729.69Z"/><path class="cls-1" d="M1680.67,729.69a3.54,3.54,0,0,1-3.54-3.54V574a3.54,3.54,0,1,1,7.07,0V726.15A3.54,3.54,0,0,1,1680.67,729.69Z"/><path class="cls-1" d="M1656.09,729.69a3.55,3.55,0,0,1-3.54-3.54V570.93a3.54,3.54,0,0,1,7.08,0V726.15A3.54,3.54,0,0,1,1656.09,729.69Z"/><path class="cls-1" d="M1631.52,729.69a3.54,3.54,0,0,1-3.54-3.54V568.89a3.54,3.54,0,1,1,7.08,0V726.15A3.55,3.55,0,0,1,1631.52,729.69Z"/><path class="cls-1" d="M1606.94,729.69a3.54,3.54,0,0,1-3.53-3.54V566.84a3.54,3.54,0,0,1,7.07,0V726.15A3.54,3.54,0,0,1,1606.94,729.69Z"/><path class="cls-1" d="M1582.37,729.69a3.54,3.54,0,0,1-3.53-3.54V566.85a3.54,3.54,0,1,1,7.07,0v159.3A3.54,3.54,0,0,1,1582.37,729.69Z"/><path class="cls-1" d="M1557.8,729.69a3.55,3.55,0,0,1-3.54-3.54V564.32a3.54,3.54,0,1,1,7.08,0V726.15A3.55,3.55,0,0,1,1557.8,729.69Z"/><path class="cls-1" d="M1533.23,729.69a3.54,3.54,0,0,1-3.54-3.54V564.32a3.54,3.54,0,1,1,7.07,0V726.15A3.54,3.54,0,0,1,1533.23,729.69Z"/><path class="cls-1" d="M1508.65,729.69a3.55,3.55,0,0,1-3.54-3.54V564.32a3.54,3.54,0,1,1,7.08,0V726.15A3.54,3.54,0,0,1,1508.65,729.69Z"/><path class="cls-1" d="M1484.08,729.69a3.55,3.55,0,0,1-3.54-3.54V564.32a3.54,3.54,0,1,1,7.08,0V726.15A3.55,3.55,0,0,1,1484.08,729.69Z"/><path class="cls-1" d="M1459.51,729.69a3.54,3.54,0,0,1-3.54-3.54V564.32a3.54,3.54,0,1,1,7.08,0V726.15A3.55,3.55,0,0,1,1459.51,729.69Z"/><path class="cls-1" d="M1434.93,729.69a3.54,3.54,0,0,1-3.53-3.54V568.89a3.54,3.54,0,1,1,7.07,0V726.15A3.54,3.54,0,0,1,1434.93,729.69Z"/><path class="cls-1" d="M1410.36,729.69a3.55,3.55,0,0,1-3.54-3.54V566.84a3.54,3.54,0,0,1,7.08,0V726.15A3.54,3.54,0,0,1,1410.36,729.69Z"/><path class="cls-1" d="M1385.79,729.69a3.54,3.54,0,0,1-3.54-3.54V568.89a3.54,3.54,0,1,1,7.08,0V726.15A3.55,3.55,0,0,1,1385.79,729.69Z"/><path class="cls-1" d="M1361.21,729.69a3.54,3.54,0,0,1-3.53-3.54V570.93a3.54,3.54,0,1,1,7.07,0V726.15A3.54,3.54,0,0,1,1361.21,729.69Z"/><path class="cls-1" d="M1336.64,729.69a3.55,3.55,0,0,1-3.54-3.54V574a3.54,3.54,0,0,1,7.08,0V726.15A3.55,3.55,0,0,1,1336.64,729.69Z"/><path class="cls-1" d="M1312.07,729.69a3.55,3.55,0,0,1-3.54-3.54V577a3.54,3.54,0,0,1,7.08,0V726.15A3.55,3.55,0,0,1,1312.07,729.69Z"/><path class="cls-1" d="M1287.5,729.69a3.54,3.54,0,0,1-3.54-3.54v-145a3.54,3.54,0,1,1,7.07,0v145A3.54,3.54,0,0,1,1287.5,729.69Z"/><path class="cls-1" d="M1262.92,729.69a3.55,3.55,0,0,1-3.54-3.54v-141a3.54,3.54,0,0,1,7.08,0v141A3.54,3.54,0,0,1,1262.92,729.69Z"/><path class="cls-1" d="M1238.35,729.69a3.54,3.54,0,0,1-3.54-3.54V589.26a3.54,3.54,0,0,1,7.08,0V726.15A3.55,3.55,0,0,1,1238.35,729.69Z"/><path class="cls-1" d="M1213.78,729.69a3.54,3.54,0,0,1-3.54-3.54V594.35a3.54,3.54,0,1,1,7.07,0v131.8A3.54,3.54,0,0,1,1213.78,729.69Z"/><path class="cls-1" d="M1189.2,729.69a3.54,3.54,0,0,1-3.53-3.54V599.43a3.54,3.54,0,0,1,7.07,0V726.15A3.54,3.54,0,0,1,1189.2,729.69Z"/><path class="cls-1" d="M1164.63,729.69a3.55,3.55,0,0,1-3.54-3.54V605.54a3.54,3.54,0,0,1,7.08,0V726.15A3.55,3.55,0,0,1,1164.63,729.69Z"/><path class="cls-1" d="M1140.06,729.69a3.54,3.54,0,0,1-3.54-3.54V611.65a3.54,3.54,0,0,1,7.08,0v114.5A3.55,3.55,0,0,1,1140.06,729.69Z"/><path class="cls-1" d="M1115.48,729.69a3.54,3.54,0,0,1-3.53-3.54V618.77a3.54,3.54,0,1,1,7.07,0V726.15A3.54,3.54,0,0,1,1115.48,729.69Z"/><path class="cls-1" d="M1090.91,729.69a3.55,3.55,0,0,1-3.54-3.54V625.9a3.54,3.54,0,1,1,7.08,0V726.15A3.55,3.55,0,0,1,1090.91,729.69Z"/><path class="cls-1" d="M1066.34,729.69a3.54,3.54,0,0,1-3.54-3.54V633a3.54,3.54,0,1,1,7.07,0v93.13A3.54,3.54,0,0,1,1066.34,729.69Z"/><path class="cls-1" d="M1041.77,729.69a3.54,3.54,0,0,1-3.54-3.54v-85a3.54,3.54,0,1,1,7.07,0v85A3.54,3.54,0,0,1,1041.77,729.69Z"/><path class="cls-1" d="M1017.19,729.69a3.55,3.55,0,0,1-3.54-3.54V651.36a3.54,3.54,0,0,1,7.08,0v74.79A3.54,3.54,0,0,1,1017.19,729.69Z"/><path class="cls-1" d="M992.62,729.69a3.54,3.54,0,0,1-3.54-3.54V659.49a3.54,3.54,0,0,1,7.08,0v66.66A3.55,3.55,0,0,1,992.62,729.69Z"/><path class="cls-1" d="M968,729.69a3.54,3.54,0,0,1-3.53-3.54v-57.5a3.54,3.54,0,1,1,7.07,0v57.5A3.54,3.54,0,0,1,968,729.69Z"/><path class="cls-1" d="M943.47,729.69a3.55,3.55,0,0,1-3.54-3.54V678.82a3.54,3.54,0,1,1,7.08,0v47.33A3.55,3.55,0,0,1,943.47,729.69Z"/><path class="cls-1" d="M918.9,729.69a3.54,3.54,0,0,1-3.54-3.54V690a3.54,3.54,0,0,1,7.08,0v36.13A3.55,3.55,0,0,1,918.9,729.69Z"/><path class="cls-1" d="M894.33,729.69a3.54,3.54,0,0,1-3.54-3.54V701.22a3.54,3.54,0,1,1,7.07,0v24.93A3.54,3.54,0,0,1,894.33,729.69Z"/><path class="cls-1" d="M869.75,729.69a3.55,3.55,0,0,1-3.54-3.54V712.41a3.54,3.54,0,1,1,7.08,0v13.74A3.54,3.54,0,0,1,869.75,729.69Z"/><path class="cls-1" d="M2172,730.87H845.35a4.72,4.72,0,0,1-2.18-8.91c200.93-104.7,437.27-162.36,665.48-162.36S1973.21,617.26,2174.13,722a4.72,4.72,0,0,1-2.18,8.91Zm-1307-9.44H2152.38C1956.61,623.06,1728.82,569,1508.65,569S1060.7,623.06,864.93,721.43Z"/></g><g id="Layer_6" data-name="Layer 6"><path d="M944.55,361.41a14.2,14.2,0,0,0-8.56,8.24,17.1,17.1,0,0,0-.35,12.84l25.74,73.75q2.32,6.64,6.64,9.55a10.12,10.12,0,0,0,9.46,1.11,10.66,10.66,0,0,0,7-6.93q1.69-5.09-.57-11.59l-10.39-29.77q-2.81-8-13.53-4.27l-2-5.59,31.43-11,1.95,5.59q-4.53,1.59-2.68,6.87l18,51.54-3.48,1.21-6.18-4.11q-4.32,9.48-17.62,14.12-27.81,9.71-39.1-22.64l-18-51.68Q916.81,383,921.62,372t19.46-16.12c3.83-1.34,6.44-2.59,7.85-3.76a6.89,6.89,0,0,0,2.46-4.59l5.14-1.79,16.2,25-4.66,3.15a76.44,76.44,0,0,0-9.3-9.64,16.24,16.24,0,0,0-7-3.67A14.24,14.24,0,0,0,944.55,361.41Z"/><path d="M1014.81,452.7q4.91-1.49,6.58-3.67c1.12-1.45,1.33-3.35.61-5.7L994.55,353c-.71-2.35-1.94-3.81-3.68-4.4s-4.24-.39-7.51.61l-1.72-5.67,38.29-11.63q28.8-8.75,38.8,24.18,3.39,11.19,2.19,19.07t-7.87,15.11a29.13,29.13,0,0,1,14.13,8.51q5.33,6,8.59,16.71l.6,2c1.37,4.5,3.49,7.84,6.39,10a10,10,0,0,0,9.4,1.75l1.68-.51,1.73,5.66-1.69.52q-14.87,4.5-24-.65T1056,413.76l-1.3-4.29c-1.36-4.5-3.53-7.85-6.49-10.08a10,10,0,0,0-9.34-1.84l-3.68,1.11-1.86-6.12,4.6-1.4a10.42,10.42,0,0,0,7.09-6.67q1.88-5.09-.17-11.83l-7.11-23.43q-2.05-6.73-6.33-9.79a10.49,10.49,0,0,0-9.63-1.43l-11.95,3.63,29.31,96.5c.72,2.35,1.94,3.81,3.69,4.4s4.24.38,7.51-.61l1.72,5.67-35.54,10.79Z"/><path d="M1096.4,428.2c3.3-.85,5.55-2,6.73-3.39s1.47-3.29.85-5.67l-23.52-91.47q-.92-3.56-3.49-4.56c-1.71-.65-4.22-.56-7.53.29l-1.47-5.74,45.73-11.76q3.57-.91,4.78-2.63c.8-1.14,1.09-2.84.84-5.09l5.27-1.36,14,26.31-4.92,2.75a51.37,51.37,0,0,0-8.06-9.83,12.65,12.65,0,0,0-7.79-3.29,39.54,39.54,0,0,0-11.25,1.58L1096.23,317,1108,362.74l4-1q10.7-2.74,7.83-13.91l5.73-1.48,7.34,28.53-5.74,1.47q-1.52-5.88-4.75-7.86t-8.81-.55l-4,1,13.35,51.93,16.75-4.3q7-1.8,10.37-4.32a10.74,10.74,0,0,0,4.14-7.35q.75-4.81-.51-13.58l5.42-1.4,8.06,31.31-5.74,1.48a5.33,5.33,0,0,0-4-2.94c-1.79-.31-4.44,0-8,.89l-51.63,13.27Z"/><path d="M1187,405.82q8.31-1.77,8.21-6.82l-8-37.58-33.48-52.13c-1.6-2.39-3.15-3.91-4.65-4.58s-3.57-.71-6.17-.16l-1.23-5.79L1178.5,291l1.23,5.79c-3.55.75-6,1.92-7.52,3.48a3.8,3.8,0,0,0-.48,5.09L1198,348.17l5.58-49.29a4.13,4.13,0,0,0-2.48-4.71c-1.93-.9-4.73-1-8.38-.19l-1.23-5.79,26.62-5.65,1.23,5.79q-4.23.9-6,2.74t-2.28,6.21l-6.85,57.91,8.11,38.21.16,0c.51,2.41,1.6,4,3.29,4.71s4.19.74,7.53,0l1.23,5.8-36.33,7.71Z"/><path d="M1274.44,388.33q5.07-.74,7.06-2.64c1.33-1.27,1.81-3.12,1.46-5.55l-13.58-93.46c-.35-2.43-1.34-4.06-3-4.91s-4.14-1-7.52-.52l-.85-5.86,39.6-5.76q29.77-4.32,34.73,29.74,1.68,11.56-.69,19.18t-10,13.76a29.05,29.05,0,0,1,12.69,10.53q4.37,6.72,6,17.81l.3,2.06q1,7,4.81,10.87a10,10,0,0,0,9,3.13l1.74-.25.85,5.86-1.74.25q-15.36,2.24-23.66-4.24T1321,356l-.64-4.44q-1-7-4.9-10.93a10,10,0,0,0-9-3.23l-3.81.55-.92-6.33,4.76-.69a10.43,10.43,0,0,0,8-5.53q2.63-4.76,1.61-11.72l-3.52-24.24q-1-7-4.78-10.63a10.51,10.51,0,0,0-9.31-2.85l-12.36,1.8,14.5,99.79q.52,3.65,3,4.91c1.63.84,4.13,1,7.52.52l.85,5.86-36.75,5.34Z"/><path d="M1381.17,258q14.5-1.38,23.48,6.85t10.51,24.33l5.18,54.5q1.58,16.74-5.48,26.17t-22,10.85q-15.15,1.44-24.11-6.63t-10.52-24.49L1353,295.1q-1.57-16.58,5.64-26.1T1381.17,258Zm11,116.33a12.07,12.07,0,0,0,9.07-5.21,16.19,16.19,0,0,0,2.71-11.35l-7.54-79.36a16.26,16.26,0,0,0-4.78-10.64,12.49,12.49,0,0,0-18.88,1.88,16.09,16.09,0,0,0-2.79,11.27l7.53,79.36q.66,6.85,4.72,10.73A12.1,12.1,0,0,0,1392.21,374.35Z"/><path d="M1462.42,252.3q14.55-.66,23.12,8t9.3,24.81l2.48,54.69q.77,16.79-6.75,25.86T1468,375.43q-15.19.69-23.75-7.81t-9.31-25L1432.47,288q-.75-16.63,6.92-25.8T1462.42,252.3ZM1467.73,369a12.11,12.11,0,0,0,9.32-4.75,16.27,16.27,0,0,0,3.25-11.21l-3.62-79.63a16.16,16.16,0,0,0-4.26-10.86,12.48,12.48,0,0,0-18.94.94,16.06,16.06,0,0,0-3.34,11.13l3.62,79.63q.32,6.87,4.18,10.95A12.12,12.12,0,0,0,1467.73,369Z"/><path d="M1509.45,365.59c3.41.07,5.88-.42,7.39-1.46s2.3-2.78,2.35-5.23l1.88-94.43q.08-3.68-2.13-5.32t-7.33-1.75l.12-5.92,31.52.63L1565,340.76,1589.19,253l30.72.62-.11,5.92c-3.63-.07-6.15.38-7.56,1.37s-2.13,2.76-2.18,5.32l-1.89,94.42c0,2.46.66,4.23,2.14,5.33s3.91,1.68,7.33,1.75l-.12,5.92-36.81-.74.12-5.92c3.41.07,5.88-.41,7.39-1.45s2.3-2.78,2.35-5.24l1.83-91.86-29,104.13-7.37-.15L1528.5,269.27l-1.79,89.78c0,2.45.66,4.23,2.14,5.32s3.91,1.68,7.33,1.75l-.12,5.92-26.73-.53Z"/><path d="M1663.77,262.49a13,13,0,0,0-9.83,3.26,13.18,13.18,0,0,0-4.89,9.3,20,20,0,0,0,1.39,9,47.21,47.21,0,0,0,6.25,10.57l14.51,20.19a131.35,131.35,0,0,1,9.43,14.7,42.37,42.37,0,0,1,4.32,11.62,44,44,0,0,1,.5,12,26.36,26.36,0,0,1-5.2,13.85,29.9,29.9,0,0,1-11.55,9.3,29.53,29.53,0,0,1-15.16,2.57,33.69,33.69,0,0,1-9.48-1.94,36,36,0,0,1-5.63-2.72,8.4,8.4,0,0,0-3.65-1.44,5.79,5.79,0,0,0-3.11.62,3.64,3.64,0,0,0-1.92,1.84l-5.58-.47,2.88-33.81,5.42.46q1.14,12.94,6.27,20.69t12.78,8.4q6.7.57,11-3.56t4.94-11.79a28.75,28.75,0,0,0-2-12.78,64.6,64.6,0,0,0-8.54-14.78L1644.86,311q-7.47-10.42-10.24-17.49a32.45,32.45,0,0,1-2.12-14.72,21.4,21.4,0,0,1,5-12.1,29.93,29.93,0,0,1,11.23-8.37,28.59,28.59,0,0,1,14.1-2.33q6.06.51,8.69-.22a6.93,6.93,0,0,0,4.13-3.19l5.42.47,4.56,29.46-5.54,1a76.08,76.08,0,0,0-4.55-12.6,16.23,16.23,0,0,0-4.86-6.2A14.29,14.29,0,0,0,1663.77,262.49Z"/><path d="M1720.94,377.63c3.35.59,5.87.5,7.52-.29s2.71-2.39,3.13-4.81l16.51-93c.43-2.41,0-4.28-1.28-5.59s-3.61-2.27-7-2.86l1-5.84,31,5.52,7.75,91,37.48-82.93,30.26,5.38-1,5.83c-3.57-.64-6.13-.57-7.67.18s-2.54,2.39-3,4.92l-16.51,93q-.65,3.63,1.29,5.6t7,2.86l-1,5.83-36.25-6.43,1-5.83c3.36.59,5.87.5,7.53-.29s2.7-2.39,3.13-4.81L1818,294.54l-44.78,98.38-7.25-1.29-11.22-106.2L1739,373.84q-.64,3.63,1.28,5.6t7,2.86l-1,5.83-26.32-4.67Z"/><path d="M1835.13,399q5,1.28,7.53.28t3.48-4.57l23.38-91.5q.92-3.57-.86-5.67c-1.19-1.41-3.43-2.53-6.74-3.38l1.47-5.74,45.75,11.69q3.55.92,5.45,0c1.26-.61,2.32-2,3.19-4.06l5.27,1.35-.35,29.82-5.63,0a51.53,51.53,0,0,0-2.34-12.49,12.67,12.67,0,0,0-5.24-6.63,39.45,39.45,0,0,0-10.62-4l-10.39-2.66-11.69,45.75,4,1q10.7,2.73,13.55-8.44l5.74,1.47-7.29,28.54-5.74-1.47q1.51-5.89-.38-9.18t-7.47-4.72l-4-1-13.27,51.95,16.75,4.28q7,1.79,11.17,1.21a10.77,10.77,0,0,0,7.17-4.45q3-3.87,6.08-12.16l5.43,1.39-8,31.33-5.73-1.47a5.35,5.35,0,0,0-2.08-4.5c-1.42-1.13-3.88-2.15-7.4-3l-51.64-13.2Z"/><path d="M1905.52,416.91c3.25,1,5.74,1.29,7.5.73s3-2,3.75-4.34l29-89.88q1.13-3.51-.51-5.71t-6.52-3.79l1.82-5.63,26.81,8.64,8.86,82.58,19.35-60q1.14-3.51-.51-5.72c-1.09-1.47-3.27-2.74-6.51-3.78l1.81-5.64,25.44,8.2-1.81,5.64c-3.25-1.05-5.75-1.29-7.5-.74s-3,2-3.76,4.34l-32.91,102.08-7.47-2.41L1951,331.82l-27,83.79q-1.12,3.51.51,5.72t6.52,3.78l-1.82,5.64-25.44-8.21Z"/><path d="M2022,341.09l2.17-5.51,34.55,13.62-2.17,5.51q-4.77-1.87-7.44-1.21c-1.78.44-3.12,1.81-4,4.09l-30.18,76.54q-3.23,8.21-.93,14.6t9.28,9.17q7,2.76,13.76-1.72t10.81-14.75l28.23-71.63c.91-2.28.85-4.19-.14-5.73s-3.09-2.94-6.27-4.19l2.18-5.51,24.87,9.8-2.18,5.51c-3.18-1.25-5.65-1.65-7.43-1.21s-3.13,1.81-4,4.09L2055.74,442q-12.57,31.86-37.73,21.94-14.16-5.58-18.56-16.86t1.63-26.63L2028.44,351q1.35-3.43-.15-5.74C2027.29,343.74,2025.21,342.34,2022,341.09Z"/></g></svg>